 <svg version="1.0" xmlns="http://www.w3.org/2000/svg" width="700.000000pt" height="604.000000pt" viewBox="0 0 700.000000 604.000000" preserveAspectRatio="xMidYMid meet">
<metadata>
Created by potrace 1.12, written by Peter Selinger 2001-2015
</metadata>
<g transform="translate(0.000000,604.000000) scale(0.100000,-0.100000)" fill="#000000" stroke="none">
<path d="M4430 5214 c-82 -8 -90 -12 -113 -62 -18 -39 -22 -72 -27 -192 -9
-241 -29 -262 -265 -271 -171 -6 -216 -20 -235 -72 -14 -41 -13 -349 1 -381
20 -44 66 -57 227 -63 133 -5 151 -8 191 -31 62 -36 73 -69 81 -239 7 -157 13
-175 80 -220 30 -21 44 -23 176 -23 l142 0 44 36 c23 20 46 41 49 48 4 6 9 83
11 172 3 88 9 168 14 177 6 9 32 31 58 48 48 30 51 31 175 30 81 0 145 5 178
15 51 14 53 16 68 66 10 35 15 91 14 177 -1 239 -16 254 -241 257 -134 2 -139
3 -192 33 -30 17 -57 39 -61 49 -4 9 -9 91 -11 181 -3 159 -4 164 -30 203 -15
21 -35 43 -45 49 -19 10 -219 19 -289 13z"></path>
<path d="M3207 3901 c-50 -11 -190 -72 -263 -116 -37 -22 -163 -141 -224 -211
-13 -16 -42 -63 -62 -104 -34 -67 -51 -115 -94 -275 -15 -54 -17 -170 -5 -250
12 -73 67 -254 84 -273 8 -10 25 -37 37 -62 22 -43 130 -176 159 -194 7 -4 30
-24 49 -42 20 -19 41 -34 48 -34 6 0 29 -13 51 -29 23 -16 63 -36 89 -44 27
-8 74 -25 104 -37 48 -19 75 -22 200 -23 109 0 156 4 190 16 25 9 78 27 119
41 41 14 81 32 90 40 9 7 32 22 51 31 40 21 99 66 142 110 91 93 200 275 213
356 4 24 16 80 27 124 24 95 21 175 -12 335 -21 103 -79 240 -134 313 -69 92
-280 267 -322 267 -6 0 -43 15 -80 33 l-69 32 -175 2 c-96 1 -192 -2 -213 -6z"></path>
<path d="M2487 2148 c-21 -24 -51 -59 -65 -78 -15 -19 -42 -54 -62 -76 -42
-50 -68 -85 -95 -129 -11 -18 -33 -52 -49 -76 -66 -98 -76 -116 -87 -149 -7
-19 -20 -47 -31 -62 -10 -15 -25 -45 -33 -67 -8 -23 -25 -60 -39 -83 -13 -24
-27 -63 -31 -88 -4 -25 -21 -73 -37 -108 -24 -50 -30 -76 -31 -135 -1 -39 4
-82 11 -93 6 -12 35 -37 64 -55 l53 -34 1336 0 1337 0 54 38 c30 20 60 49 66
63 20 43 14 122 -13 180 -14 30 -30 77 -35 106 -6 28 -19 66 -29 83 -10 17
-26 54 -35 81 -9 27 -27 65 -40 84 -12 19 -29 53 -36 75 -7 22 -24 54 -37 71
-12 17 -23 36 -23 42 0 6 -13 27 -30 45 -16 19 -36 48 -42 64 -15 33 -32 57
-135 181 -123 148 -138 162 -179 162 -39 0 -61 -10 -98 -43 -25 -22 -68 -58
-137 -117 -20 -16 -55 -37 -77 -44 -23 -8 -54 -24 -69 -35 -15 -12 -59 -29
-98 -40 -38 -10 -90 -27 -115 -37 -38 -15 -75 -18 -240 -19 -189 0 -197 1
-255 26 -33 15 -79 30 -102 34 -24 4 -59 18 -79 31 -19 13 -51 31 -71 39 -37
16 -48 24 -181 135 -73 62 -88 70 -124 70 -35 0 -47 -6 -81 -42z"></path>
</g>
</svg>