 <svg version="1.0" xmlns="http://www.w3.org/2000/svg" width="700.000000pt" height="738.000000pt" viewBox="0 0 700.000000 738.000000" preserveAspectRatio="xMidYMid meet">
<metadata>
Created by potrace 1.12, written by Peter Selinger 2001-2015
</metadata>
<g transform="translate(0.000000,738.000000) scale(0.100000,-0.100000)" fill="#000000" stroke="none">
<path d="M3354 5996 c-41 -19 -55 -33 -72 -67 -21 -44 -21 -50 -23 -988 -1
-582 -5 -955 -11 -972 -5 -15 -26 -40 -46 -56 l-37 -28 -940 -5 c-920 -5 -941
-5 -967 -25 -48 -36 -52 -54 -51 -233 1 -92 5 -180 10 -196 19 -62 -8 -60
1012 -63 900 -3 924 -3 955 -23 18 -10 41 -29 52 -41 18 -20 19 -47 22 -908 2
-590 6 -897 13 -919 16 -47 54 -89 97 -103 23 -8 86 -13 162 -12 150 1 198 16
232 72 l23 36 5 890 c6 990 1 925 75 977 l40 28 925 3 c858 2 927 3 957 19 60
33 63 44 63 240 l0 178 -34 38 -34 37 -946 5 c-941 5 -945 5 -973 26 -15 12
-37 36 -48 55 -20 33 -20 57 -25 989 -5 936 -5 956 -25 990 -12 21 -39 44 -65
58 -39 19 -59 22 -170 22 -111 0 -131 -3 -176 -24z"></path>
</g>
</svg>