 <svg version="1.0" xmlns="http://www.w3.org/2000/svg" width="700.000000pt" height="533.000000pt" viewBox="0 0 700.000000 533.000000" preserveAspectRatio="xMidYMid meet">
<metadata>
Created by potrace 1.12, written by Peter Selinger 2001-2015
</metadata>
<g transform="translate(0.000000,533.000000) scale(0.100000,-0.100000)" fill="#000000" stroke="none">
<path d="M293 5311 c-6 -10 -25 -21 -42 -24 -66 -14 -194 -140 -207 -206 -4
-18 -15 -38 -25 -44 -18 -11 -19 -82 -19 -2372 0 -2290 1 -2361 19 -2372 10
-6 21 -26 25 -44 13 -66 141 -192 207 -206 17 -3 36 -14 42 -24 11 -18 103
-19 3193 -19 2717 0 3183 2 3187 14 3 8 23 20 44 26 82 27 160 100 214 200
l24 45 0 2380 0 2380 -24 45 c-54 100 -132 173 -214 200 -21 6 -41 18 -44 26
-4 12 -470 14 -3187 14 -3090 0 -3182 -1 -3193 -19z m5776 -840 c29 -23 52
-54 67 -88 l24 -54 0 -1664 0 -1664 -24 -54 c-15 -34 -38 -65 -67 -88 l-43
-34 -2541 0 -2541 0 -35 29 c-19 16 -45 44 -59 64 l-25 35 0 1712 0 1712 25
35 c35 50 81 86 115 91 17 2 1162 4 2545 3 l2516 -1 43 -34z"></path>
<path d="M4607 3665 c-31 -7 -66 -20 -76 -29 -9 -9 -23 -16 -29 -16 -18 0
-106 -92 -134 -140 -57 -98 -63 -276 -13 -375 29 -56 94 -131 140 -160 113
-72 263 -88 371 -38 62 28 103 54 138 89 26 25 76 97 76 110 1 5 9 27 20 49
14 29 19 62 20 122 0 108 -32 190 -107 272 -102 113 -240 153 -406 116z"></path>
<path d="M3233 3463 c-45 -16 -74 -45 -168 -173 -33 -44 -70 -93 -81 -108 -12
-15 -60 -79 -107 -142 -48 -63 -94 -124 -102 -135 -9 -11 -29 -38 -45 -60 -16
-22 -33 -45 -37 -50 -5 -6 -30 -41 -58 -78 -49 -66 -155 -208 -193 -257 -200
-260 -272 -365 -274 -399 -5 -108 20 -161 90 -192 42 -18 82 -19 1026 -19
l982 0 44 23 c56 27 105 112 95 163 -8 47 -58 137 -95 174 -3 3 -27 34 -53 70
-27 36 -87 117 -135 181 -48 63 -96 128 -107 142 -11 15 -47 63 -80 107 -33
44 -69 92 -80 107 -100 136 -412 547 -442 582 -56 65 -116 87 -180 64z"></path>
</g>
</svg>