 <svg version="1.0" xmlns="http://www.w3.org/2000/svg" width="700.000000pt" height="712.000000pt" viewBox="0 0 700.000000 712.000000" preserveAspectRatio="xMidYMid meet">
<metadata>
Created by potrace 1.12, written by Peter Selinger 2001-2015
</metadata>
<g transform="translate(0.000000,712.000000) scale(0.100000,-0.100000)" fill="#000000" stroke="none">
<path d="M3372 5979 c-74 -4 -170 -15 -215 -24 -135 -25 -230 -47 -267 -60
-92 -32 -107 -37 -135 -44 -17 -4 -39 -12 -50 -18 -11 -5 -36 -17 -55 -25
-126 -55 -216 -104 -345 -191 -121 -81 -163 -116 -281 -232 -136 -134 -238
-268 -319 -420 -21 -38 -41 -74 -44 -80 -4 -5 -17 -37 -30 -70 -12 -33 -27
-68 -32 -77 -5 -10 -13 -34 -19 -55 -5 -21 -20 -80 -34 -132 -13 -52 -30 -157
-37 -237 -28 -323 32 -612 187 -910 76 -147 174 -281 310 -424 39 -41 75 -84
80 -95 5 -11 11 -269 14 -573 l5 -554 33 -29 c24 -21 42 -29 70 -29 55 1 0
-41 595 454 138 114 262 215 275 224 24 16 71 15 332 -8 266 -23 709 50 945
155 17 7 48 21 70 31 344 151 629 386 837 689 30 44 61 94 70 110 8 17 31 62
52 102 20 39 36 76 36 81 0 6 6 23 14 39 77 152 122 433 111 683 -9 214 -39
344 -128 560 -157 377 -482 719 -872 918 -132 67 -232 112 -250 112 -8 0 -29
6 -47 14 -126 52 -367 102 -536 111 -59 3 -129 7 -157 9 -27 1 -110 -1 -183
-5z m387 -485 c179 -26 304 -60 461 -126 113 -48 234 -118 340 -199 85 -64
240 -221 285 -289 16 -25 33 -47 36 -50 11 -8 95 -171 117 -225 96 -243 108
-499 35 -755 -30 -102 -99 -246 -171 -354 -57 -85 -225 -258 -313 -322 -176
-129 -378 -224 -579 -274 -174 -43 -249 -51 -441 -52 -188 0 -281 10 -434 48
-439 109 -813 390 -990 744 -62 124 -77 168 -110 305 -36 147 -19 458 31 573
8 18 14 39 14 47 0 8 9 32 20 52 11 21 20 42 20 48 0 6 21 47 48 92 267 460
796 746 1386 752 81 0 182 -5 245 -15z"></path>
<path d="M2767 4369 c-215 -52 -237 -350 -33 -445 64 -30 117 -30 181 0 154
71 192 257 77 378 -20 21 -49 44 -66 52 -42 20 -113 27 -159 15z"></path>
<path d="M3475 4367 c-55 -16 -100 -51 -133 -101 -24 -36 -27 -51 -27 -126 0
-93 10 -118 70 -173 46 -43 94 -62 155 -62 104 0 184 60 225 167 44 117 -40
266 -167 297 -55 13 -70 13 -123 -2z"></path>
<path d="M4194 4369 c-50 -12 -118 -68 -144 -120 -27 -52 -28 -165 -1 -217 25
-49 66 -86 121 -111 148 -67 320 52 320 222 0 107 -64 192 -167 223 -52 16
-70 16 -129 3z"></path>
</g>
</svg>