 <svg version="1.0" xmlns="http://www.w3.org/2000/svg" width="700.000000pt" height="688.000000pt" viewBox="0 0 700.000000 688.000000" preserveAspectRatio="xMidYMid meet">
<metadata>
Created by potrace 1.12, written by Peter Selinger 2001-2015
</metadata>
<g transform="translate(0.000000,688.000000) scale(0.100000,-0.100000)" fill="#000000" stroke="none">
<path d="M4847 5347 c-23 -24 -60 -67 -82 -96 -22 -29 -65 -84 -95 -121 -30
-37 -73 -91 -95 -120 -22 -29 -65 -83 -95 -121 -68 -85 -158 -199 -207 -262
-21 -27 -63 -80 -93 -117 -30 -37 -71 -89 -90 -114 -19 -26 -60 -77 -90 -114
-30 -37 -64 -79 -75 -94 -51 -68 -142 -184 -158 -203 -24 -26 -122 -149 -167
-209 -19 -26 -62 -80 -95 -120 -33 -40 -91 -115 -130 -165 -38 -51 -81 -106
-95 -122 -34 -40 -58 -70 -139 -174 -38 -49 -91 -116 -118 -148 -26 -32 -57
-70 -68 -86 -72 -101 -99 -130 -126 -140 -17 -6 -37 -7 -44 -3 -7 4 -84 75
-172 157 -87 83 -196 186 -243 230 -192 181 -247 233 -304 290 -106 104 -135
125 -172 125 -36 0 -81 -43 -448 -424 -148 -154 -147 -164 47 -349 245 -234
259 -247 407 -385 127 -119 403 -380 495 -467 17 -16 114 -109 216 -206 265
-253 272 -259 324 -239 21 8 145 149 225 255 36 48 82 106 126 160 47 57 139
173 174 219 19 26 62 80 95 121 33 41 76 95 95 120 36 48 82 107 126 160 14
17 39 49 57 72 49 63 145 185 212 268 33 40 76 95 95 121 19 25 60 77 90 114
30 37 73 91 95 120 56 73 101 130 130 165 14 17 48 59 76 95 80 103 129 165
194 245 33 41 76 95 95 121 19 26 58 74 85 108 28 34 59 73 70 88 57 75 142
184 158 203 23 25 118 144 172 215 22 29 66 84 98 124 31 39 71 87 87 107 40
50 64 112 55 146 -9 39 -54 78 -294 258 -15 11 -36 29 -48 40 -11 11 -46 38
-78 60 -32 22 -65 47 -74 56 -35 34 -113 79 -137 79 -17 0 -40 -15 -67 -43z"></path>
</g>
</svg>