 <svg version="1.0" xmlns="http://www.w3.org/2000/svg" width="700.000000pt" height="730.000000pt" viewBox="0 0 700.000000 730.000000" preserveAspectRatio="xMidYMid meet">
<metadata>
Created by potrace 1.12, written by Peter Selinger 2001-2015
</metadata>
<g transform="translate(0.000000,730.000000) scale(0.100000,-0.100000)" fill="#000000" stroke="none">
<path d="M5392 5838 c-157 -148 -395 -375 -508 -485 -62 -59 -185 -178 -274
-263 -89 -85 -197 -189 -239 -230 -43 -41 -129 -124 -192 -185 -63 -60 -208
-200 -323 -310 -114 -110 -219 -207 -234 -217 -51 -34 -75 -25 -170 65 -48 45
-116 109 -151 142 -36 33 -99 94 -142 135 -42 41 -147 143 -234 225 -86 83
-208 200 -271 260 -62 61 -168 162 -236 225 -67 63 -133 127 -147 141 -14 14
-60 57 -101 94 -110 101 -370 345 -405 381 -39 40 -54 45 -91 29 -16 -7 -137
-118 -269 -247 l-239 -236 27 -38 c14 -22 88 -97 163 -169 75 -71 173 -166
218 -210 97 -94 420 -404 556 -531 52 -49 149 -141 215 -204 249 -238 502
-481 563 -539 53 -49 65 -67 69 -100 5 -38 3 -42 -53 -95 -91 -87 -364 -349
-490 -471 -62 -60 -184 -177 -271 -260 -86 -82 -216 -206 -288 -275 -71 -69
-202 -193 -290 -275 -227 -214 -415 -398 -415 -408 0 -10 61 -89 77 -100 6 -4
98 -93 203 -198 105 -104 203 -194 216 -200 57 -21 58 -20 310 220 61 58 179
171 263 251 84 80 204 195 266 255 130 124 347 332 403 385 21 19 118 111 217
204 99 93 231 218 292 278 101 96 117 108 149 108 48 0 63 -10 148 -93 40 -40
104 -101 142 -137 188 -178 640 -609 744 -710 43 -41 148 -142 235 -225 86
-82 207 -199 269 -260 333 -324 369 -355 410 -355 16 0 70 46 207 174 41 39
113 105 159 146 127 114 180 168 180 185 0 16 -152 170 -405 410 -86 83 -187
179 -224 214 -36 36 -94 90 -127 120 -34 31 -140 130 -235 220 -96 91 -241
228 -323 305 -82 78 -181 173 -221 211 -39 39 -133 129 -208 200 -120 114
-137 134 -137 162 0 33 18 83 30 83 4 0 43 35 87 78 44 42 109 104 144 137 35
33 152 143 259 244 107 101 231 218 275 259 115 109 374 355 464 442 43 41
163 157 267 256 104 100 219 210 255 245 69 66 89 95 89 126 0 10 -36 50 -83
90 -45 40 -107 96 -138 125 -31 29 -98 91 -149 138 -52 47 -105 97 -118 113
-44 47 -71 38 -170 -55z"></path>
</g>
</svg>