 <svg version="1.0" xmlns="http://www.w3.org/2000/svg" width="700.000000pt" height="639.000000pt" viewBox="0 0 700.000000 639.000000" preserveAspectRatio="xMidYMid meet">
<metadata>
Created by potrace 1.12, written by Peter Selinger 2001-2015
</metadata>
<g transform="translate(0.000000,639.000000) scale(0.100000,-0.100000)" fill="#000000" stroke="none">
<path d="M5101 5620 c-29 -5 -65 -17 -80 -28 -15 -11 -47 -29 -71 -42 -25 -12
-58 -35 -75 -51 -117 -111 -1225 -1224 -1244 -1249 -49 -65 -50 -77 -51 -525
0 -262 4 -434 11 -457 21 -79 76 -85 675 -71 l331 8 37 30 c65 52 1290 1279
1309 1310 9 17 26 44 37 61 53 82 46 343 -10 407 -15 18 -34 46 -43 62 -22 43
-434 448 -482 474 -22 11 -51 30 -66 42 -41 33 -162 45 -278 29z m156 -507
c43 -20 201 -172 245 -237 65 -96 59 -104 -452 -615 -406 -407 -486 -482 -538
-510 -32 -17 -71 -13 -104 12 -68 50 -226 215 -253 262 l-28 51 27 51 c20 40
132 158 486 510 397 395 466 460 507 475 60 22 63 22 110 1z"></path>
<path d="M1804 4931 c-80 -10 -186 -91 -198 -152 -10 -52 -8 -3654 3 -3680 17
-45 92 -106 146 -118 65 -16 3450 -17 3521 -1 80 18 98 33 135 112 l34 73 3
825 c2 574 -1 833 -8 851 -6 14 -29 43 -50 64 l-39 38 -121 -1 c-132 -2 -160
-10 -194 -55 -21 -28 -21 -38 -26 -700 -4 -511 -8 -677 -17 -694 -7 -12 -28
-32 -45 -45 l-33 -23 -1365 -3 c-969 -2 -1380 0 -1416 8 -29 6 -60 20 -70 32
-18 19 -19 72 -22 1464 -3 1576 -5 1492 54 1531 26 17 65 18 509 23 533 6 515
3 552 73 14 26 16 55 14 156 -2 121 -3 126 -33 167 -17 24 -38 46 -47 51 -19
9 -1215 13 -1287 4z"></path>
</g>
</svg>