 <svg version="1.0" xmlns="http://www.w3.org/2000/svg" width="700.000000pt" height="674.000000pt" viewBox="0 0 700.000000 674.000000" preserveAspectRatio="xMidYMid meet">
<metadata>
Created by potrace 1.12, written by Peter Selinger 2001-2015
</metadata>
<g transform="translate(0.000000,674.000000) scale(0.100000,-0.100000)" fill="#000000" stroke="none">
<path d="M4413 5621 c-75 -19 -102 -76 -103 -214 0 -114 -14 -158 -56 -175
-22 -10 -403 -13 -1569 -15 -1260 -2 -1544 -4 -1563 -15 -48 -27 -62 -83 -62
-246 0 -162 10 -213 47 -248 l25 -23 1551 -5 c1196 -4 1557 -8 1573 -17 36
-21 54 -83 54 -187 0 -80 3 -98 23 -126 47 -70 63 -75 220 -75 124 0 147 3
177 21 58 33 75 75 76 184 1 52 2 105 3 117 1 12 12 35 25 50 l24 28 449 5
c508 6 488 2 524 86 16 38 19 69 19 178 0 146 -14 207 -55 246 l-25 23 -447 2
c-477 1 -498 3 -508 49 -2 12 -6 73 -7 136 -4 130 -22 184 -74 210 -33 17
-266 25 -321 11z"></path>
<path d="M1750 4092 c-58 -29 -74 -70 -80 -204 -4 -98 -9 -121 -26 -145 -38
-51 -52 -53 -282 -51 -198 1 -215 0 -240 -19 -53 -39 -62 -72 -62 -246 0 -171
6 -197 56 -236 25 -20 39 -21 236 -21 300 0 309 -6 318 -199 5 -103 8 -120 30
-149 42 -56 90 -72 221 -72 140 0 174 9 221 57 50 51 58 79 56 181 -2 103 12
139 62 165 33 16 134 17 1756 17 1114 -1 1730 3 1747 9 14 6 39 29 54 52 28
42 28 44 28 203 0 135 -3 166 -18 193 -37 68 103 63 -1804 64 -950 1 -1739 4
-1752 8 -50 14 -66 52 -71 174 -5 116 -15 147 -60 195 -35 37 -62 42 -213 42
-115 0 -149 -3 -177 -18z"></path>
<path d="M3313 2580 c-53 -11 -86 -33 -103 -68 -7 -15 -16 -80 -20 -145 -6
-111 -8 -119 -35 -147 -16 -17 -46 -35 -67 -40 -24 -7 -373 -10 -983 -10
l-946 1 -35 -22 c-55 -34 -64 -66 -64 -241 0 -134 2 -157 20 -185 41 -67 -22
-63 1045 -63 857 1 968 -1 995 -15 53 -28 64 -57 70 -186 6 -127 14 -149 74
-193 23 -18 47 -22 149 -26 192 -9 264 16 287 99 5 20 10 81 10 136 1 110 9
135 56 166 28 18 57 19 999 19 904 0 972 1 1004 18 70 35 76 54 76 237 0 181
-5 198 -73 238 -30 18 -78 19 -997 17 -855 -1 -968 1 -995 15 -53 27 -64 57
-70 184 -9 190 -32 211 -233 217 -67 2 -141 -1 -164 -6z"></path>
</g>
</svg>