 <svg version="1.0" xmlns="http://www.w3.org/2000/svg" width="700.000000pt" height="610.000000pt" viewBox="0 0 700.000000 610.000000" preserveAspectRatio="xMidYMid meet">
<metadata>
Created by potrace 1.12, written by Peter Selinger 2001-2015
</metadata>
<g transform="translate(0.000000,610.000000) scale(0.100000,-0.100000)" fill="#000000" stroke="none">
<path d="M4418 5310 c-38 -5 -83 -17 -100 -28 -18 -11 -46 -23 -63 -26 -39
-10 -137 -69 -205 -125 -30 -25 -557 -547 -1170 -1161 -834 -833 -1124 -1129
-1147 -1170 -17 -30 -36 -80 -41 -110 -6 -31 -19 -78 -30 -105 -11 -28 -23
-74 -27 -104 -4 -29 -15 -72 -26 -95 -10 -23 -23 -72 -29 -110 -6 -38 -17 -81
-26 -97 -8 -16 -21 -66 -30 -111 -9 -45 -22 -94 -29 -108 -7 -14 -18 -55 -25
-90 -6 -36 -22 -97 -36 -137 -13 -39 -24 -83 -24 -97 0 -14 -11 -55 -24 -90
-14 -36 -28 -86 -32 -113 -3 -26 -15 -70 -25 -98 -28 -73 -35 -156 -16 -191 8
-16 24 -47 36 -68 31 -59 117 -105 197 -106 34 0 78 7 98 15 20 8 67 22 106
30 38 8 95 23 127 34 32 11 81 22 108 26 28 4 66 16 85 25 19 10 68 23 108 29
41 6 87 18 103 26 16 9 66 22 111 31 45 9 94 22 108 29 14 7 55 18 90 25 36 6
97 22 137 36 39 13 83 24 97 24 14 0 49 9 78 20 29 11 83 27 120 35 37 7 89
26 115 42 55 32 2270 2241 2344 2338 25 33 54 74 63 90 9 17 21 37 26 45 5 8
24 51 42 95 32 79 32 82 33 250 0 163 -1 173 -28 245 -16 41 -35 86 -42 100
-8 14 -24 43 -36 65 -30 55 -100 133 -275 309 -162 162 -278 266 -296 266 -6
0 -19 7 -28 15 -9 8 -56 31 -105 51 -120 48 -256 62 -417 44z m223 -496 l82
-26 177 -174 c196 -193 224 -227 251 -311 24 -72 24 -92 -3 -176 -20 -60 -33
-80 -103 -153 -58 -61 -87 -84 -104 -84 -19 0 -106 81 -373 348 -191 192 -348
356 -348 365 0 21 81 111 139 156 39 29 153 78 188 80 7 1 49 -11 94 -25z
m-410 -923 c192 -191 349 -352 348 -357 0 -5 -4 -17 -7 -27 -13 -31 -1306
-1317 -1325 -1317 -10 0 -28 5 -40 11 -33 18 -674 665 -682 688 -3 11 -2 28 3
36 8 16 1202 1215 1275 1281 20 19 46 34 58 34 14 0 134 -113 370 -349z
m-1706 -1701 c190 -189 344 -351 343 -359 -3 -13 -60 -34 -193 -68 -33 -9 -96
-26 -140 -38 -44 -13 -107 -30 -140 -38 -156 -40 -195 -51 -267 -73 -43 -14
-107 -27 -143 -31 -54 -5 -66 -3 -71 11 -8 21 14 142 33 178 7 15 20 65 29
110 9 45 21 93 29 107 7 15 20 63 28 108 9 44 22 94 30 110 8 15 18 51 22 78
13 92 76 264 92 252 2 -1 158 -157 348 -347z"></path>
</g>
</svg>