 <svg version="1.0" xmlns="http://www.w3.org/2000/svg" width="700.000000pt" height="700.000000pt" viewBox="0 0 700.000000 700.000000" preserveAspectRatio="xMidYMid meet">
<metadata>
Created by potrace 1.12, written by Peter Selinger 2001-2015
</metadata>
<g transform="translate(0.000000,700.000000) scale(0.100000,-0.100000)" fill="#000000" stroke="none">
<path d="M3261 6982 c-15 -29 -83 -43 -245 -52 -112 -6 -164 -13 -201 -28 -27
-11 -81 -23 -120 -26 -38 -4 -87 -16 -107 -26 -21 -11 -65 -24 -99 -29 -34 -6
-72 -17 -84 -25 -13 -9 -45 -21 -72 -27 -26 -7 -70 -23 -98 -36 -27 -12 -60
-23 -71 -23 -12 0 -33 -9 -47 -20 -15 -12 -49 -28 -76 -36 -28 -8 -53 -19 -56
-24 -3 -5 -27 -20 -53 -33 -26 -13 -67 -34 -92 -47 -25 -12 -52 -28 -60 -35
-8 -7 -26 -16 -40 -20 -14 -4 -34 -16 -45 -26 -11 -10 -37 -25 -58 -34 -20 -8
-37 -19 -37 -24 0 -5 -17 -20 -37 -33 -35 -22 -78 -51 -139 -93 -33 -22 -277
-227 -310 -259 -12 -12 -30 -29 -40 -38 -11 -9 -24 -23 -31 -30 -7 -7 -18 -18
-25 -25 -27 -25 -68 -72 -179 -205 -132 -158 -150 -182 -173 -223 -9 -16 -32
-50 -51 -75 -19 -25 -43 -61 -54 -81 -11 -19 -26 -41 -35 -48 -8 -7 -18 -26
-21 -42 -4 -16 -11 -31 -16 -35 -6 -3 -21 -29 -35 -57 -42 -86 -78 -154 -90
-168 -6 -8 -15 -25 -18 -39 -4 -14 -17 -47 -30 -75 -37 -78 -67 -155 -81 -210
-7 -27 -23 -68 -34 -90 -12 -21 -21 -55 -21 -75 0 -19 -11 -57 -23 -85 -13
-27 -27 -81 -31 -120 -4 -38 -16 -90 -27 -115 -16 -35 -22 -79 -29 -202 -10
-175 -21 -233 -50 -248 -19 -10 -20 -22 -20 -240 0 -217 1 -230 20 -240 29
-16 40 -70 49 -240 7 -117 13 -167 28 -205 11 -27 24 -81 28 -118 4 -38 18
-92 31 -120 13 -29 24 -68 24 -88 0 -20 11 -56 23 -80 13 -24 27 -62 31 -84 4
-22 16 -53 26 -70 10 -16 21 -48 25 -70 4 -22 18 -56 30 -75 13 -19 26 -50 30
-67 4 -18 11 -35 16 -39 6 -3 21 -29 35 -57 14 -29 40 -79 59 -112 37 -64 55
-101 55 -114 0 -4 9 -16 20 -26 12 -10 29 -37 39 -59 10 -23 36 -61 58 -86 22
-25 43 -53 46 -64 15 -40 254 -325 371 -442 119 -119 383 -340 451 -378 17 -9
50 -32 75 -51 25 -20 59 -42 75 -49 17 -8 39 -23 49 -35 10 -11 32 -23 50 -27
17 -3 40 -14 51 -24 22 -19 52 -36 135 -76 30 -14 62 -32 70 -39 8 -7 33 -18
55 -25 22 -7 50 -21 62 -30 13 -10 40 -21 60 -25 20 -4 53 -15 73 -25 20 -10
54 -22 75 -26 22 -4 60 -18 84 -31 24 -12 61 -23 81 -23 20 0 57 -11 81 -23
28 -15 72 -27 118 -31 41 -4 97 -17 125 -28 38 -15 89 -22 206 -28 170 -10
224 -21 243 -51 11 -18 25 -19 237 -19 212 0 226 1 237 19 19 30 73 41 243 50
105 6 168 14 195 25 21 9 80 23 129 31 50 7 109 23 131 34 21 12 55 21 75 21
19 0 59 11 88 25 30 14 62 25 72 25 9 0 38 11 63 24 25 14 63 28 84 32 21 3
54 17 73 29 19 13 49 27 65 31 17 4 41 15 55 24 14 10 45 27 70 39 84 41 130
67 142 79 7 7 19 12 29 12 9 0 32 12 52 28 37 29 80 56 134 85 18 9 33 22 33
27 0 5 15 17 33 26 17 9 45 26 60 38 48 36 301 248 329 275 14 14 31 31 37 36
44 40 125 131 227 252 137 164 155 187 178 228 9 17 32 50 51 75 19 25 43 61
54 81 11 19 26 41 35 48 8 7 18 26 21 42 4 16 11 31 16 34 5 3 19 27 32 53 13
26 39 74 57 107 18 33 39 71 46 85 8 14 14 32 14 41 0 8 11 30 25 49 14 19 25
45 25 59 0 14 14 53 30 86 17 33 30 68 30 78 0 10 9 35 19 55 11 21 25 67 31
102 6 35 20 80 30 99 9 20 22 72 28 116 6 44 18 98 28 120 11 27 19 89 24 201
9 164 23 228 55 240 13 5 15 38 15 234 0 196 -2 229 -15 234 -32 12 -47 76
-55 240 -6 123 -12 173 -27 211 -11 28 -23 82 -27 120 -4 39 -16 88 -27 109
-12 22 -25 67 -30 100 -6 33 -18 74 -28 91 -10 16 -22 48 -26 70 -3 22 -15 55
-26 73 -10 18 -22 51 -25 72 -4 22 -17 54 -30 72 -13 17 -24 37 -24 44 0 7
-21 52 -46 101 -26 48 -54 102 -62 118 -8 17 -24 41 -34 54 -10 13 -18 32 -18
42 0 10 -13 33 -28 51 -15 18 -33 44 -40 58 -7 14 -28 45 -47 70 -19 25 -44
61 -55 80 -27 46 -47 73 -161 210 -168 202 -213 247 -416 418 -189 159 -215
180 -239 189 -11 3 -37 22 -59 40 -56 47 -58 49 -96 68 -19 10 -47 28 -62 41
-16 13 -37 24 -47 24 -10 0 -21 4 -24 9 -3 5 -29 21 -58 35 -29 15 -80 43
-113 62 -70 40 -101 54 -119 54 -7 0 -27 11 -46 25 -19 14 -45 25 -59 25 -14
0 -53 14 -86 30 -33 16 -69 30 -80 30 -11 0 -42 12 -70 25 -27 14 -66 25 -85
25 -20 0 -54 9 -75 21 -22 11 -81 27 -131 34 -49 8 -108 22 -129 31 -27 11
-90 19 -195 25 -171 9 -224 20 -240 49 -10 19 -23 20 -240 20 -212 0 -230 -1
-239 -18z m608 -645 c24 -10 87 -22 140 -27 53 -6 119 -19 146 -30 28 -11 78
-24 111 -29 34 -5 79 -18 100 -29 22 -11 59 -22 83 -25 24 -3 56 -15 72 -26
15 -11 40 -23 55 -27 25 -6 104 -42 169 -77 11 -6 31 -16 45 -22 14 -7 39 -20
55 -28 17 -9 49 -25 71 -36 23 -11 45 -25 49 -31 4 -7 22 -19 39 -26 47 -22
161 -103 201 -141 12 -13 27 -23 32 -23 5 0 20 -11 33 -25 13 -14 29 -25 36
-25 7 0 31 -17 52 -37 151 -144 234 -228 294 -298 38 -44 76 -88 85 -97 9 -10
21 -26 27 -36 20 -35 50 -77 78 -110 15 -18 28 -39 28 -46 0 -7 11 -23 25 -36
14 -13 25 -29 25 -35 0 -7 14 -29 30 -50 17 -21 30 -44 30 -52 0 -9 11 -28 25
-45 14 -16 25 -38 25 -48 0 -10 11 -31 24 -47 13 -16 29 -47 35 -70 6 -22 17
-46 25 -52 8 -6 19 -32 25 -57 7 -26 23 -63 36 -83 15 -20 25 -50 25 -70 0
-18 9 -48 19 -65 10 -17 24 -64 30 -104 6 -41 20 -90 30 -111 12 -22 22 -71
26 -121 4 -47 17 -121 29 -165 19 -73 21 -105 21 -375 0 -270 -2 -302 -22
-380 -12 -47 -24 -120 -27 -163 -4 -48 -13 -92 -26 -117 -11 -21 -25 -72 -30
-111 -6 -40 -19 -87 -30 -104 -11 -18 -20 -48 -20 -67 0 -21 -10 -47 -25 -68
-14 -19 -30 -53 -36 -75 -6 -22 -19 -51 -29 -65 -10 -14 -21 -39 -24 -56 -4
-17 -18 -46 -32 -65 -13 -18 -24 -41 -24 -50 0 -10 -11 -31 -25 -47 -14 -17
-25 -35 -25 -42 0 -16 -68 -125 -91 -146 -10 -9 -19 -23 -19 -30 0 -7 -24 -41
-52 -76 -54 -65 -66 -81 -96 -132 -24 -41 -398 -416 -415 -416 -7 0 -24 -11
-37 -25 -13 -14 -28 -25 -33 -25 -5 0 -32 -20 -60 -44 -29 -24 -70 -55 -92
-70 -22 -14 -67 -44 -99 -66 -33 -22 -67 -40 -76 -40 -9 0 -27 -11 -39 -24
-13 -13 -38 -27 -56 -30 -18 -4 -38 -13 -45 -21 -7 -8 -31 -20 -54 -27 -22 -6
-52 -19 -66 -28 -14 -10 -43 -23 -65 -30 -22 -7 -53 -22 -68 -32 -15 -11 -47
-22 -70 -25 -23 -3 -60 -15 -81 -25 -21 -11 -67 -24 -100 -29 -34 -4 -82 -17
-106 -28 -25 -11 -81 -23 -125 -26 -44 -4 -116 -17 -160 -29 -73 -19 -104 -21
-380 -21 -276 0 -306 2 -375 22 -41 11 -113 24 -160 28 -52 4 -100 14 -123 26
-20 10 -70 24 -110 30 -39 6 -83 19 -97 29 -14 9 -46 19 -72 22 -25 3 -59 14
-75 26 -15 11 -45 24 -65 30 -21 6 -50 19 -65 30 -15 11 -42 23 -59 26 -17 4
-46 18 -65 32 -18 13 -41 24 -50 24 -10 0 -30 11 -46 24 -15 13 -39 27 -52 31
-24 7 -76 39 -121 73 -14 10 -36 25 -50 32 -22 12 -64 43 -112 84 -9 8 -26 20
-38 26 -12 6 -29 18 -38 26 -9 8 -39 33 -67 56 -112 91 -344 329 -380 389 -11
18 -25 41 -31 52 -6 10 -21 27 -33 38 -11 11 -21 23 -21 28 0 4 -8 16 -19 27
-21 23 -69 94 -90 133 -7 14 -21 35 -31 46 -10 11 -21 31 -25 45 -4 14 -18 38
-31 53 -13 16 -24 36 -24 46 0 9 -11 32 -24 50 -14 19 -28 48 -32 65 -4 17
-15 42 -25 55 -11 13 -24 42 -30 64 -6 22 -22 57 -35 76 -15 23 -24 50 -24 75
0 22 -9 53 -21 72 -11 18 -25 64 -31 101 -6 37 -18 84 -28 103 -10 19 -21 71
-25 115 -4 44 -16 114 -28 155 -21 70 -22 97 -22 390 0 293 1 320 21 385 12
39 24 107 28 153 3 50 13 101 26 128 11 25 25 76 31 112 7 36 20 80 30 97 11
16 19 46 19 66 0 22 10 51 25 72 13 20 29 54 35 75 5 22 18 50 29 63 10 13 21
38 25 55 4 17 18 46 32 65 13 18 24 40 24 50 0 9 9 27 19 40 10 14 26 40 35
59 9 19 28 53 44 76 15 22 37 56 49 75 40 63 68 101 90 125 13 14 28 34 34 47
7 12 18 29 25 37 7 8 47 54 88 101 90 103 298 305 344 332 17 10 32 23 32 27
0 5 10 12 23 16 12 4 31 15 42 26 50 46 102 86 121 92 12 4 29 15 39 26 10 11
23 20 29 20 6 0 29 14 50 30 22 17 47 30 56 30 9 0 25 9 35 20 9 10 34 25 54
31 20 7 46 20 59 30 13 10 37 21 55 25 18 3 43 15 56 25 13 11 41 24 63 29 21
6 55 22 75 35 21 15 50 25 71 25 19 0 49 9 66 19 17 10 65 24 105 30 41 7 89
20 105 30 20 12 61 21 116 26 47 3 121 15 165 25 44 11 89 21 100 24 11 2 153
3 315 2 249 -2 302 -5 339 -19z"></path>
<path d="M1570 4728 c-30 -4 -73 -13 -95 -22 -22 -8 -50 -15 -61 -16 -12 0
-27 -7 -35 -16 -7 -8 -29 -24 -48 -34 -41 -21 -111 -86 -111 -102 0 -6 -13
-26 -30 -45 -16 -18 -30 -41 -30 -51 0 -9 -10 -33 -22 -52 -21 -32 -23 -50
-26 -190 -2 -121 1 -167 13 -210 9 -30 23 -82 32 -115 8 -33 26 -83 39 -110
13 -28 24 -58 24 -66 0 -9 7 -23 17 -30 9 -8 22 -29 30 -47 34 -82 193 -258
317 -352 26 -19 54 -43 64 -52 9 -10 32 -23 52 -29 19 -7 46 -20 59 -30 13
-11 31 -19 41 -19 9 0 41 -13 71 -29 33 -17 78 -31 117 -35 34 -4 81 -14 105
-23 68 -27 299 -24 401 5 44 12 96 22 115 22 20 0 50 9 68 19 17 11 51 25 75
32 24 7 50 18 58 25 8 7 35 21 60 32 25 11 51 27 59 36 7 9 18 16 24 16 14 0
129 101 204 180 34 36 71 74 81 85 11 11 27 36 36 55 19 40 41 79 74 131 12
20 22 43 22 50 0 8 12 39 26 69 18 38 29 83 35 145 10 104 29 140 75 140 39 0
54 -33 64 -144 5 -56 16 -103 29 -129 12 -23 21 -46 21 -53 0 -19 79 -176 95
-189 8 -7 15 -18 15 -25 0 -31 286 -315 317 -315 6 0 17 -7 24 -17 8 -9 30
-23 49 -31 19 -8 47 -23 62 -33 14 -11 31 -19 38 -19 6 0 42 -13 80 -30 38
-17 85 -30 104 -30 20 0 62 -9 94 -21 40 -14 94 -22 183 -26 109 -5 135 -3
195 15 38 11 96 24 129 27 33 4 87 20 120 36 33 16 67 29 75 29 9 0 31 11 50
25 19 14 40 25 48 25 8 0 27 10 43 23 15 12 47 36 70 52 22 17 56 44 74 62 19
17 40 35 47 40 33 21 198 229 198 249 0 7 11 25 23 41 13 15 27 43 30 61 4 19
15 45 26 58 11 13 22 48 26 76 4 29 17 72 29 98 19 41 21 63 21 230 0 175 -1
187 -22 220 -13 19 -23 41 -23 49 0 7 -13 29 -30 48 -16 18 -30 40 -30 47 0
12 -26 34 -132 115 -22 17 -56 31 -83 34 -25 4 -59 14 -76 22 -27 14 -231 16
-1947 18 -1054 1 -1942 -1 -1972 -5z"></path>
<path d="M4898 2557 c-51 -13 -92 -46 -173 -143 -64 -75 -119 -128 -225 -214
-14 -11 -41 -33 -61 -49 -19 -16 -47 -33 -62 -36 -14 -4 -32 -14 -38 -22 -7
-8 -28 -21 -48 -29 -20 -8 -45 -23 -56 -33 -11 -11 -34 -22 -52 -26 -18 -3
-44 -16 -58 -27 -14 -11 -45 -22 -68 -25 -23 -3 -56 -14 -74 -25 -19 -11 -66
-23 -118 -29 -47 -5 -109 -18 -138 -29 -28 -11 -60 -20 -69 -20 -22 0 -73 -56
-110 -118 -42 -71 -39 -130 11 -209 54 -84 129 -133 205 -133 29 0 78 9 108
19 31 11 87 22 124 26 39 4 88 17 114 29 25 13 65 26 89 30 24 4 54 15 67 25
13 10 40 22 61 26 20 3 52 17 72 31 20 13 43 24 53 24 9 0 29 11 45 24 15 13
39 27 53 31 14 4 38 18 53 31 16 13 35 24 42 24 8 0 42 24 77 53 63 53 75 61
144 108 41 27 194 178 229 224 11 15 32 41 46 59 38 45 89 156 89 191 0 16
-11 48 -25 70 -13 22 -25 47 -25 55 -1 32 -73 77 -141 89 -76 13 -79 13 -141
-2z"></path>
</g>
</svg>