 <svg version="1.0" xmlns="http://www.w3.org/2000/svg" width="700.000000pt" height="700.000000pt" viewBox="0 0 700.000000 700.000000" preserveAspectRatio="xMidYMid meet">
<metadata>
Created by potrace 1.12, written by Peter Selinger 2001-2015
</metadata>
<g transform="translate(0.000000,700.000000) scale(0.100000,-0.100000)" fill="#000000" stroke="none">
<path d="M3273 6981 c-17 -28 -92 -42 -259 -51 -118 -6 -161 -12 -197 -28 -26
-12 -79 -24 -119 -28 -41 -4 -94 -17 -123 -30 -27 -13 -66 -24 -85 -24 -20 0
-54 -9 -75 -21 -22 -11 -64 -27 -93 -35 -29 -7 -63 -20 -75 -28 -12 -8 -42
-18 -65 -22 -24 -4 -56 -17 -70 -29 -15 -12 -43 -25 -63 -29 -21 -4 -48 -15
-60 -24 -22 -17 -40 -27 -161 -88 -25 -13 -49 -28 -52 -33 -4 -5 -19 -12 -35
-16 -16 -3 -37 -15 -47 -26 -10 -12 -32 -27 -49 -35 -16 -7 -50 -29 -75 -49
-25 -19 -58 -42 -75 -51 -16 -9 -43 -26 -58 -38 -46 -34 -300 -247 -323 -270
-12 -11 -30 -29 -40 -38 -11 -9 -24 -23 -31 -30 -7 -7 -18 -18 -25 -25 -27
-25 -69 -72 -181 -208 -64 -77 -125 -149 -136 -160 -11 -12 -23 -32 -26 -47
-4 -14 -20 -38 -36 -54 -16 -15 -29 -34 -29 -41 0 -8 -6 -16 -14 -19 -8 -3
-21 -22 -29 -42 -8 -20 -24 -45 -35 -56 -12 -10 -24 -31 -27 -47 -4 -16 -11
-31 -16 -35 -6 -3 -21 -29 -35 -57 -14 -29 -40 -79 -59 -112 -43 -77 -55 -103
-55 -120 0 -8 -11 -30 -24 -49 -13 -20 -27 -51 -30 -71 -4 -20 -15 -50 -26
-68 -10 -18 -22 -50 -26 -72 -4 -22 -17 -60 -30 -85 -13 -25 -24 -61 -24 -80
0 -19 -11 -58 -24 -85 -13 -29 -26 -82 -30 -123 -4 -40 -16 -93 -28 -118 -15
-36 -22 -81 -29 -209 -8 -165 -24 -237 -55 -249 -11 -4 -14 -44 -14 -223 0
-205 1 -219 19 -230 30 -19 41 -73 51 -248 7 -116 14 -174 28 -210 11 -27 23
-79 26 -115 4 -36 16 -85 27 -110 12 -25 25 -71 30 -103 5 -33 16 -69 25 -81
8 -13 21 -47 29 -77 8 -30 23 -72 34 -94 12 -21 21 -50 21 -63 0 -13 11 -40
25 -60 14 -20 25 -44 25 -53 0 -9 11 -33 25 -53 14 -20 25 -42 25 -49 0 -7 16
-37 35 -67 19 -30 35 -58 35 -63 0 -5 9 -21 19 -36 11 -15 23 -39 26 -53 4
-14 18 -36 31 -49 13 -12 24 -28 24 -34 0 -6 21 -40 48 -75 26 -35 56 -78 67
-96 39 -62 60 -90 169 -219 140 -165 256 -281 426 -425 134 -114 148 -124 204
-158 24 -15 78 -55 124 -93 7 -5 27 -16 45 -24 18 -7 40 -22 50 -33 10 -11 32
-22 49 -26 16 -3 43 -17 60 -31 16 -14 35 -25 42 -25 7 0 21 -9 30 -19 10 -11
31 -23 47 -26 15 -4 44 -17 63 -30 19 -13 51 -28 70 -34 20 -5 48 -19 62 -30
15 -12 36 -21 47 -21 11 0 43 -11 71 -24 28 -13 69 -27 91 -31 22 -4 54 -16
70 -26 17 -10 58 -22 92 -28 33 -5 78 -18 99 -29 22 -11 70 -23 109 -27 38 -4
92 -16 120 -27 37 -15 90 -22 210 -28 174 -10 222 -19 250 -50 17 -19 31 -20
232 -20 175 0 215 3 219 14 12 31 86 48 244 56 110 6 173 14 217 29 34 11 91
23 125 27 35 4 80 15 102 26 21 11 65 24 97 29 33 5 74 18 92 29 17 11 44 20
58 20 14 0 46 11 70 23 24 13 67 29 96 36 29 7 57 19 64 27 6 8 30 19 53 25
22 6 52 19 66 29 14 9 45 27 70 39 25 12 68 35 95 51 28 17 61 35 75 40 14 5
32 15 40 20 8 6 28 18 44 28 16 9 40 26 55 37 14 11 38 27 54 34 15 8 27 18
27 22 0 5 15 16 33 25 42 22 61 37 230 178 179 150 273 244 423 423 136 163
156 188 174 223 7 14 22 35 33 47 11 12 25 31 31 41 6 10 20 33 31 51 11 19
30 46 43 61 12 15 22 33 22 40 0 7 10 29 22 48 30 48 61 107 91 168 14 28 29
54 35 58 6 3 14 21 17 39 4 17 18 50 31 73 13 22 24 49 24 60 0 11 11 40 24
65 13 25 28 63 32 84 3 22 15 56 24 75 10 20 23 61 29 92 5 32 19 74 30 95 10
21 22 70 26 108 4 39 16 93 27 120 14 36 21 94 28 210 10 175 21 229 51 248
18 11 19 25 19 227 0 202 -1 216 -19 227 -30 19 -41 73 -51 248 -6 119 -13
173 -28 210 -11 28 -23 82 -27 120 -4 39 -15 84 -25 100 -11 17 -24 61 -30 97
-5 37 -19 82 -29 100 -10 18 -22 51 -26 73 -3 22 -14 54 -24 70 -10 17 -21 44
-24 60 -4 17 -18 53 -31 80 -13 28 -31 66 -40 85 -9 19 -20 42 -25 50 -6 8
-19 35 -31 60 -32 69 -51 103 -70 125 -10 11 -21 34 -25 52 -3 17 -13 37 -21
44 -9 7 -24 29 -35 48 -11 20 -35 56 -54 81 -19 25 -44 61 -55 80 -27 47 -47
73 -174 225 -142 169 -258 284 -431 428 -77 64 -149 125 -160 134 -11 10 -36
25 -55 34 -19 9 -41 23 -48 31 -7 9 -38 31 -68 49 -30 19 -71 46 -91 62 -20
15 -43 27 -52 27 -10 0 -26 7 -37 15 -10 8 -37 24 -59 35 -22 11 -76 40 -120
64 -44 25 -87 45 -96 45 -9 1 -28 10 -41 21 -14 10 -47 24 -72 30 -26 6 -64
19 -84 29 -21 10 -57 24 -81 31 -24 6 -60 20 -80 31 -20 10 -54 19 -76 19 -23
0 -59 10 -85 24 -27 14 -73 26 -115 31 -38 4 -92 16 -120 26 -36 14 -92 22
-200 28 -167 10 -241 25 -258 52 -11 18 -28 19 -227 19 -199 0 -216 -1 -227
-19z m618 -649 c37 -11 102 -23 145 -27 44 -4 99 -16 124 -26 25 -10 74 -23
109 -29 36 -7 81 -20 100 -29 20 -10 55 -21 78 -24 23 -3 55 -14 70 -25 16
-11 47 -25 69 -31 23 -6 52 -19 65 -30 13 -10 38 -21 55 -25 17 -4 46 -18 65
-32 18 -13 41 -24 50 -24 10 0 31 -11 47 -25 17 -14 36 -25 43 -25 14 0 80
-40 129 -78 14 -10 40 -27 58 -36 17 -9 32 -21 32 -26 0 -5 18 -19 40 -30 22
-11 40 -24 40 -29 0 -5 14 -14 30 -21 17 -7 30 -16 30 -21 0 -5 14 -16 30 -24
49 -26 284 -255 379 -370 22 -27 50 -61 61 -74 11 -13 20 -30 20 -37 0 -7 8
-19 18 -26 22 -17 92 -108 92 -121 0 -5 12 -24 28 -42 36 -44 82 -119 82 -135
0 -7 11 -25 25 -42 14 -16 25 -37 25 -47 0 -9 11 -32 24 -50 13 -17 29 -51 35
-75 6 -24 17 -49 26 -56 8 -7 20 -31 26 -53 6 -22 22 -57 35 -76 14 -21 24
-50 24 -71 0 -19 9 -49 19 -66 11 -18 22 -58 26 -90 4 -33 17 -82 30 -111 15
-34 26 -82 30 -135 4 -46 16 -117 28 -158 20 -69 22 -99 22 -375 0 -276 -2
-306 -21 -380 -12 -44 -25 -116 -29 -160 -3 -44 -15 -100 -26 -124 -11 -24
-24 -76 -30 -115 -6 -39 -19 -82 -29 -96 -9 -14 -19 -45 -22 -70 -3 -25 -17
-62 -32 -84 -14 -21 -26 -46 -26 -55 0 -9 -11 -37 -25 -63 -14 -26 -25 -53
-25 -61 0 -8 -11 -30 -24 -49 -13 -20 -29 -51 -35 -70 -7 -20 -21 -44 -31 -53
-11 -10 -20 -25 -20 -33 0 -18 -66 -125 -91 -148 -10 -9 -19 -22 -19 -29 0 -6
-24 -40 -52 -76 -29 -36 -57 -72 -63 -81 -5 -8 -23 -35 -39 -59 -37 -57 -391
-409 -410 -409 -8 0 -21 -8 -28 -18 -7 -11 -24 -25 -38 -32 -14 -7 -47 -31
-74 -54 -27 -23 -64 -50 -82 -61 -17 -11 -56 -36 -86 -56 -30 -20 -65 -40 -79
-44 -13 -4 -35 -18 -49 -30 -14 -13 -38 -27 -55 -31 -16 -3 -39 -15 -50 -24
-11 -10 -39 -23 -62 -29 -23 -7 -45 -16 -48 -21 -3 -4 -29 -16 -58 -26 -28 -9
-65 -26 -80 -36 -15 -11 -47 -22 -70 -25 -23 -3 -58 -14 -78 -24 -20 -10 -66
-23 -102 -29 -35 -5 -84 -19 -108 -29 -24 -11 -80 -22 -124 -26 -44 -4 -116
-17 -160 -28 -73 -20 -104 -22 -375 -22 -271 0 -301 2 -375 22 -44 12 -116 24
-160 28 -44 4 -100 15 -124 26 -24 10 -73 24 -110 30 -36 5 -77 17 -91 27 -14
9 -48 19 -77 23 -29 4 -65 16 -81 27 -15 12 -41 24 -58 28 -16 3 -47 16 -69
29 -22 12 -53 25 -69 29 -16 4 -40 16 -53 26 -13 10 -37 21 -52 25 -16 3 -39
17 -51 31 -13 13 -31 24 -40 24 -9 0 -44 19 -79 43 -35 23 -78 51 -96 62 -19
12 -42 28 -52 37 -30 27 -86 67 -110 77 -13 6 -23 15 -23 20 0 6 -15 18 -32
27 -35 17 -408 385 -408 402 0 5 -14 27 -30 48 -17 22 -37 48 -45 59 -9 11
-30 39 -48 61 -17 23 -40 55 -49 70 -25 42 -40 65 -65 100 -12 17 -25 43 -28
57 -4 14 -15 33 -26 42 -10 10 -23 33 -30 53 -6 19 -22 50 -35 70 -13 19 -24
42 -24 51 0 9 -9 30 -20 46 -11 17 -25 48 -31 69 -6 22 -22 56 -35 75 -14 21
-24 50 -24 71 0 19 -9 53 -21 75 -12 21 -25 67 -30 102 -5 35 -17 81 -28 101
-10 21 -21 72 -25 117 -4 44 -17 116 -29 160 -20 74 -22 102 -22 390 0 289 1
315 21 380 12 39 25 107 28 152 3 52 13 97 25 120 10 21 23 69 29 106 6 37 20
83 31 101 12 19 21 50 21 73 0 26 9 53 25 77 14 20 28 49 31 64 4 15 16 45 29
67 12 22 25 54 29 70 4 17 16 39 26 50 9 11 23 37 29 57 7 21 17 41 23 44 5 3
18 25 29 48 11 22 32 59 47 82 15 22 37 56 49 75 45 71 69 103 96 130 15 15
27 31 27 36 0 11 10 24 114 143 89 103 299 306 344 333 17 10 32 23 32 27 0 5
10 12 23 15 12 4 31 16 42 26 50 47 120 97 194 138 15 8 39 25 54 38 16 12 36
23 46 23 10 0 26 9 36 20 9 10 34 25 54 31 20 7 47 20 60 30 13 11 29 19 36
19 7 0 36 13 66 29 30 15 67 31 83 35 15 4 40 16 55 27 15 11 50 23 78 28 28
4 62 15 75 23 13 9 57 21 98 27 41 7 88 20 104 31 21 12 60 21 116 25 47 4
119 15 160 25 41 11 84 21 95 24 11 3 155 3 320 1 264 -3 308 -6 366 -23z"></path>
<path d="M3490 5695 c-25 -8 -76 -19 -114 -24 -45 -6 -76 -17 -90 -30 -12 -12
-32 -21 -43 -21 -11 0 -37 -13 -58 -30 -21 -16 -41 -30 -44 -30 -3 0 -32 -24
-63 -54 -56 -51 -58 -55 -58 -103 0 -71 15 -86 92 -91 l64 -4 73 61 c40 34 79
61 86 61 6 0 30 12 51 27 38 27 44 28 192 31 l153 4 77 -38 c42 -21 96 -51
120 -67 46 -31 136 -133 147 -167 3 -11 10 -20 14 -20 5 0 13 -12 19 -27 5
-16 22 -60 37 -100 25 -65 27 -81 23 -166 -4 -74 -10 -103 -27 -130 -11 -19
-21 -44 -21 -55 0 -26 -20 -72 -31 -72 -5 0 -16 -14 -24 -31 -9 -16 -23 -38
-31 -47 -85 -95 -92 -131 -37 -191 30 -34 43 -41 73 -41 31 0 45 8 81 44 74
74 143 177 154 227 4 19 17 50 29 69 19 32 21 51 24 240 l3 205 -26 39 c-14
21 -30 57 -34 81 -4 23 -18 52 -29 63 -12 12 -22 28 -22 35 0 33 -162 210
-204 223 -12 4 -34 17 -49 30 -16 13 -36 24 -46 24 -9 0 -32 11 -49 24 -21 15
-53 26 -90 30 -31 4 -79 13 -106 21 -61 19 -156 18 -216 0z"></path>
<path d="M1883 5282 c-34 -37 -98 -105 -142 -152 -45 -46 -81 -87 -81 -91 0
-4 -27 -39 -59 -78 -33 -39 -63 -80 -66 -91 -4 -11 -10 -20 -15 -20 -5 0 -18
-19 -28 -42 -10 -24 -26 -49 -35 -57 -10 -7 -17 -19 -17 -26 0 -7 -11 -28 -24
-47 -13 -20 -29 -51 -35 -71 -7 -19 -19 -41 -26 -47 -8 -7 -20 -31 -26 -54 -6
-22 -20 -51 -31 -63 -11 -11 -22 -41 -25 -65 -4 -23 -17 -63 -30 -87 -12 -24
-23 -57 -23 -73 0 -16 -11 -55 -25 -88 -13 -32 -27 -85 -31 -117 -3 -32 -17
-104 -30 -161 -25 -100 -26 -110 -21 -385 3 -250 6 -289 24 -342 11 -33 24
-94 28 -137 3 -42 15 -91 25 -110 10 -19 22 -57 25 -84 4 -27 18 -69 30 -94
12 -25 25 -63 28 -84 3 -21 15 -48 25 -60 10 -12 24 -40 30 -62 7 -23 19 -47
27 -54 7 -6 19 -28 26 -48 7 -20 20 -48 30 -61 11 -13 19 -30 19 -37 0 -7 13
-28 29 -46 15 -18 32 -44 36 -58 4 -14 16 -34 26 -45 29 -32 81 -98 129 -166
25 -35 93 -111 151 -169 105 -104 121 -118 209 -185 25 -19 56 -44 70 -54 14
-11 42 -34 64 -50 21 -17 45 -31 52 -31 7 0 25 -11 41 -23 32 -28 46 -35 179
-100 55 -27 108 -53 119 -60 57 -31 72 -37 95 -37 14 0 43 -9 64 -21 21 -11
62 -25 92 -30 30 -6 69 -19 87 -29 19 -11 70 -23 122 -29 50 -5 124 -19 165
-31 70 -20 93 -21 360 -17 247 4 295 7 360 25 41 11 104 23 140 27 35 3 87 17
116 31 28 13 66 24 85 24 19 0 52 10 74 22 22 11 60 25 84 30 25 4 54 17 65
27 12 11 35 23 51 27 17 4 64 25 105 47 41 22 89 47 105 55 17 8 43 26 58 39
16 12 34 23 41 23 13 0 60 33 121 84 58 49 108 86 115 86 4 0 65 57 136 126
71 69 139 133 152 141 13 9 22 26 22 40 0 33 -3349 3383 -3383 3383 -14 0 -44
-24 -84 -68z m214 -724 c133 -124 529 -522 542 -546 24 -45 13 -62 -126 -204
-76 -77 -155 -157 -177 -177 -64 -60 -552 -554 -578 -584 -12 -15 -38 -32 -56
-37 -54 -15 -68 8 -77 126 -4 54 -13 118 -21 144 -7 25 -16 110 -20 190 -5
118 -3 158 11 215 9 39 21 114 25 169 6 64 16 112 29 136 11 21 24 63 30 93 5
30 19 70 30 88 12 19 21 43 21 54 0 11 14 40 30 65 16 25 30 51 30 58 0 16 56
121 79 147 9 11 22 32 29 48 15 36 73 95 93 96 9 1 56 -36 106 -81z m977 -963
c9 -14 136 -145 281 -290 146 -145 265 -271 265 -279 0 -14 -26 -42 -196 -208
-38 -37 -88 -86 -111 -110 -23 -24 -72 -74 -110 -111 -37 -37 -72 -72 -78 -78
-13 -13 -30 -29 -116 -114 -39 -38 -77 -76 -83 -83 -6 -7 -31 -33 -56 -57 -25
-25 -49 -49 -53 -54 -34 -36 -48 -50 -83 -83 -21 -20 -44 -43 -51 -50 -6 -7
-32 -33 -57 -58 -25 -25 -63 -62 -84 -82 -56 -57 -85 -53 -175 23 -40 33 -84
70 -99 82 -49 39 -173 161 -210 207 -20 25 -64 78 -97 118 -84 102 -83 118 10
208 39 38 87 87 107 108 20 21 43 44 50 50 8 6 33 31 55 55 23 24 48 49 55 55
17 14 31 28 114 113 37 37 73 73 80 80 7 7 18 18 24 25 6 7 31 32 55 55 24 24
50 48 57 55 7 7 31 33 55 57 23 24 48 49 55 55 7 6 21 19 30 29 9 11 48 49 85
85 38 37 74 73 80 80 7 7 41 42 76 77 70 72 98 81 125 40z m939 -957 c20 -10
226 -215 520 -516 l119 -121 -38 -46 c-21 -24 -53 -50 -71 -56 -18 -6 -39 -18
-45 -27 -14 -18 -130 -82 -150 -82 -6 0 -25 -11 -42 -24 -17 -13 -47 -27 -66
-31 -19 -4 -53 -18 -76 -31 -22 -13 -57 -24 -76 -24 -19 0 -57 -11 -83 -26
-36 -19 -73 -27 -149 -35 -56 -5 -128 -16 -161 -24 -90 -22 -290 -20 -406 5
-52 11 -114 20 -139 20 -59 1 -121 15 -132 32 -15 23 0 82 26 103 14 11 105
100 203 199 98 98 194 193 213 212 19 18 136 134 260 258 232 233 243 241 293
214z"></path>
<path d="M4690 4339 c-25 -12 -66 -27 -91 -35 -25 -8 -54 -23 -64 -34 -10 -11
-22 -20 -28 -20 -13 0 -70 -47 -123 -100 -60 -61 -60 -96 -1 -150 49 -46 76
-50 121 -15 18 14 38 25 43 25 6 0 18 11 27 25 9 14 23 25 31 25 8 0 29 14 47
30 17 17 42 30 55 30 13 0 43 10 66 23 36 19 57 22 152 22 95 0 116 -3 152
-22 23 -13 51 -23 61 -23 21 0 96 -46 164 -103 54 -44 98 -101 129 -167 11
-25 28 -53 37 -64 15 -15 17 -43 17 -185 0 -167 0 -168 -27 -207 -16 -22 -28
-47 -28 -56 0 -17 -44 -79 -87 -121 -25 -25 -28 -34 -28 -98 0 -85 13 -99 89
-99 46 0 52 3 94 48 24 26 54 63 68 84 13 20 28 39 33 42 5 4 13 20 16 37 4
17 18 47 31 66 13 20 24 50 24 67 0 18 7 59 16 91 25 97 29 195 10 251 -9 27
-19 75 -23 106 -4 38 -14 69 -29 90 -13 18 -24 40 -24 49 0 10 -11 30 -24 46
-13 15 -26 37 -30 48 -14 45 -187 205 -222 205 -6 0 -21 11 -34 25 -13 14 -35
25 -49 25 -14 0 -53 14 -86 30 l-60 30 -190 0 c-171 0 -195 -3 -235 -21z"></path>
</g>
</svg>