 <svg version="1.0" xmlns="http://www.w3.org/2000/svg" width="700.000000pt" height="700.000000pt" viewBox="0 0 700.000000 700.000000" preserveAspectRatio="xMidYMid meet">
<metadata>
Created by potrace 1.12, written by Peter Selinger 2001-2015
</metadata>
<g transform="translate(0.000000,700.000000) scale(0.100000,-0.100000)" fill="#000000" stroke="none">
<path d="M3261 6982 c-15 -29 -83 -43 -245 -52 -112 -6 -164 -13 -201 -28 -27
-11 -81 -23 -120 -26 -38 -4 -87 -16 -107 -26 -21 -11 -65 -24 -99 -29 -34 -6
-72 -17 -84 -25 -13 -9 -45 -21 -72 -27 -26 -7 -70 -23 -98 -36 -27 -12 -60
-23 -71 -23 -12 0 -33 -9 -47 -20 -15 -12 -49 -28 -76 -36 -28 -8 -53 -19 -56
-24 -3 -5 -27 -20 -53 -33 -26 -13 -67 -34 -92 -47 -25 -12 -52 -28 -60 -35
-8 -7 -26 -16 -40 -20 -14 -4 -34 -16 -45 -26 -11 -10 -37 -25 -58 -34 -20 -8
-37 -19 -37 -24 0 -5 -17 -20 -37 -33 -35 -22 -78 -51 -139 -93 -33 -22 -277
-227 -310 -259 -12 -12 -30 -29 -40 -38 -11 -9 -24 -23 -31 -30 -7 -7 -18 -18
-25 -25 -27 -25 -68 -72 -179 -205 -132 -158 -150 -182 -173 -223 -9 -16 -32
-50 -51 -75 -19 -25 -43 -61 -54 -81 -11 -19 -26 -41 -35 -48 -8 -7 -18 -26
-21 -42 -4 -16 -11 -31 -16 -35 -6 -3 -21 -29 -35 -57 -42 -86 -78 -154 -90
-168 -6 -8 -15 -25 -18 -39 -4 -14 -17 -47 -30 -75 -37 -78 -67 -155 -81 -210
-7 -27 -23 -68 -34 -90 -12 -21 -21 -55 -21 -75 0 -19 -11 -57 -23 -85 -13
-27 -27 -81 -31 -120 -4 -38 -16 -90 -27 -115 -16 -35 -22 -79 -29 -202 -10
-175 -21 -233 -50 -248 -19 -10 -20 -22 -20 -240 0 -217 1 -230 20 -240 29
-16 40 -70 49 -240 7 -117 13 -167 28 -205 11 -27 24 -81 28 -118 4 -38 18
-92 31 -120 13 -29 24 -68 24 -88 0 -20 11 -56 23 -80 13 -24 27 -62 31 -84 4
-22 16 -53 26 -70 10 -16 21 -48 25 -70 4 -22 18 -56 30 -75 13 -19 26 -50 30
-67 4 -18 11 -35 16 -39 6 -3 21 -29 35 -57 14 -29 40 -79 59 -112 37 -64 55
-101 55 -114 0 -4 9 -16 20 -26 12 -10 29 -37 39 -59 10 -23 36 -61 58 -86 22
-25 43 -53 46 -64 15 -40 254 -325 371 -442 119 -119 383 -340 451 -378 17 -9
50 -32 75 -51 25 -20 59 -42 75 -49 17 -8 39 -23 49 -35 10 -11 32 -23 50 -27
17 -3 40 -14 51 -24 22 -19 52 -36 135 -76 30 -14 62 -32 70 -39 8 -7 33 -18
55 -25 22 -7 50 -21 62 -30 13 -10 40 -21 60 -25 20 -4 53 -15 73 -25 20 -10
54 -22 75 -26 22 -4 60 -18 84 -31 24 -12 61 -23 81 -23 20 0 57 -11 81 -23
28 -15 72 -27 118 -31 41 -4 97 -17 125 -28 38 -15 89 -22 206 -28 170 -10
224 -21 243 -51 11 -18 25 -19 237 -19 212 0 226 1 237 19 19 30 73 41 243 50
105 6 168 14 195 25 21 9 80 23 129 31 50 7 109 23 131 34 21 12 55 21 75 21
19 0 59 11 88 25 30 14 62 25 72 25 9 0 38 11 63 24 25 14 63 28 84 32 21 3
54 17 73 29 19 13 49 27 65 31 17 4 41 15 55 24 14 10 45 27 70 39 84 41 130
67 142 79 7 7 19 12 29 12 9 0 32 12 52 28 37 29 80 56 134 85 18 9 33 22 33
27 0 5 15 17 33 26 17 9 45 26 60 38 48 36 301 248 329 275 14 14 31 31 37 36
44 40 125 131 227 252 137 164 155 187 178 228 9 17 32 50 51 75 19 25 43 61
54 81 11 19 26 41 35 48 8 7 18 26 21 42 4 16 11 31 16 34 5 3 19 27 32 53 13
26 39 74 57 107 18 33 39 71 46 85 8 14 14 32 14 41 0 8 11 30 25 49 14 19 25
45 25 59 0 14 14 53 30 86 17 33 30 68 30 78 0 10 9 35 19 55 11 21 25 67 31
102 6 35 20 80 30 99 9 20 22 72 28 116 6 44 18 98 28 120 11 27 19 89 24 201
9 164 23 228 55 240 13 5 15 38 15 234 0 196 -2 229 -15 234 -32 12 -47 76
-55 240 -6 123 -12 173 -27 211 -11 28 -23 82 -27 120 -4 39 -16 88 -27 109
-12 22 -25 67 -30 100 -6 33 -18 74 -28 91 -10 16 -22 48 -26 70 -3 22 -15 55
-26 73 -10 18 -22 51 -25 72 -4 22 -17 54 -30 72 -13 17 -24 37 -24 44 0 7
-21 52 -46 101 -26 48 -54 102 -62 118 -8 17 -24 41 -34 54 -10 13 -18 32 -18
42 0 10 -13 33 -28 51 -15 18 -33 44 -40 58 -7 14 -28 45 -47 70 -19 25 -44
61 -55 80 -27 46 -47 73 -161 210 -168 202 -213 247 -416 418 -189 159 -215
180 -239 189 -11 3 -37 22 -59 40 -56 47 -58 49 -96 68 -19 10 -47 28 -62 41
-16 13 -37 24 -47 24 -10 0 -21 4 -24 9 -3 5 -29 21 -58 35 -29 15 -80 43
-113 62 -70 40 -101 54 -119 54 -7 0 -27 11 -46 25 -19 14 -45 25 -59 25 -14
0 -53 14 -86 30 -33 16 -69 30 -80 30 -11 0 -42 12 -70 25 -27 14 -66 25 -85
25 -20 0 -54 9 -75 21 -22 11 -81 27 -131 34 -49 8 -108 22 -129 31 -27 11
-90 19 -195 25 -171 9 -224 20 -240 49 -10 19 -23 20 -240 20 -212 0 -230 -1
-239 -18z m608 -645 c24 -10 87 -22 140 -27 53 -6 119 -19 146 -30 28 -11 78
-24 111 -29 34 -5 79 -18 100 -29 22 -11 59 -22 83 -25 24 -3 56 -15 72 -26
15 -11 40 -23 55 -27 25 -6 104 -42 169 -77 11 -6 31 -16 45 -22 14 -7 39 -20
55 -28 17 -9 49 -25 71 -36 23 -11 45 -25 49 -31 4 -7 22 -19 39 -26 47 -22
161 -103 201 -141 12 -13 27 -23 32 -23 5 0 20 -11 33 -25 13 -14 29 -25 36
-25 7 0 31 -17 52 -37 151 -144 234 -228 294 -298 38 -44 76 -88 85 -97 9 -10
21 -26 27 -36 20 -35 50 -77 78 -110 15 -18 28 -39 28 -46 0 -7 11 -23 25 -36
14 -13 25 -28 25 -34 0 -6 14 -29 30 -50 17 -22 30 -46 30 -54 0 -8 11 -27 25
-44 14 -16 25 -37 25 -47 0 -9 11 -32 24 -50 14 -19 28 -48 32 -65 3 -17 15
-44 26 -59 11 -15 24 -44 30 -64 6 -21 21 -53 34 -72 14 -20 24 -50 24 -70 0
-18 9 -48 19 -65 10 -17 24 -64 30 -104 6 -41 20 -90 30 -111 12 -22 22 -71
26 -121 4 -47 17 -121 29 -165 19 -73 21 -105 21 -375 0 -270 -2 -302 -22
-380 -12 -47 -24 -120 -27 -163 -4 -48 -13 -92 -26 -117 -11 -21 -25 -72 -30
-111 -6 -40 -19 -86 -29 -103 -10 -17 -21 -49 -23 -71 -3 -22 -17 -58 -32 -79
-14 -21 -26 -48 -26 -59 0 -11 -11 -39 -24 -61 -13 -23 -27 -55 -30 -72 -4
-18 -16 -40 -26 -49 -11 -10 -22 -32 -26 -51 -3 -18 -17 -42 -30 -55 -13 -12
-24 -30 -24 -38 0 -15 -38 -78 -78 -131 -10 -14 -25 -36 -32 -50 -12 -24 -53
-76 -87 -112 -16 -17 -21 -25 -58 -88 -26 -44 -400 -420 -418 -420 -7 0 -24
-11 -37 -25 -13 -14 -28 -25 -33 -25 -5 0 -32 -20 -60 -44 -29 -24 -70 -55
-92 -70 -22 -14 -51 -33 -65 -43 -79 -52 -98 -63 -111 -63 -9 0 -24 -9 -34
-20 -10 -11 -35 -25 -56 -30 -21 -6 -45 -18 -54 -26 -9 -9 -37 -22 -62 -30
-26 -8 -54 -20 -62 -28 -9 -7 -38 -21 -65 -30 -27 -9 -57 -23 -67 -32 -10 -9
-37 -18 -61 -21 -24 -3 -61 -15 -82 -25 -21 -11 -67 -24 -100 -29 -34 -4 -82
-17 -106 -28 -25 -11 -81 -23 -125 -26 -44 -4 -116 -17 -160 -29 -73 -19 -104
-21 -380 -21 -276 0 -306 2 -375 22 -41 11 -113 24 -160 28 -52 4 -100 14
-123 26 -20 10 -70 24 -110 30 -39 6 -83 19 -97 29 -14 9 -46 19 -72 22 -25 3
-59 14 -75 26 -15 11 -45 24 -65 30 -21 6 -50 19 -65 30 -15 11 -42 23 -59 26
-17 4 -46 18 -65 32 -18 13 -41 24 -50 24 -10 0 -30 11 -46 24 -15 13 -39 27
-52 31 -24 7 -76 39 -121 73 -14 10 -36 25 -50 32 -22 12 -64 43 -112 84 -9 8
-26 20 -38 26 -12 6 -29 18 -38 26 -9 8 -39 33 -67 56 -112 91 -344 328 -369
376 -9 18 -20 32 -25 32 -4 0 -13 12 -20 27 -7 15 -21 33 -32 41 -10 7 -19 18
-19 24 0 6 -12 25 -27 43 -16 17 -37 47 -48 66 -11 18 -30 49 -42 69 -12 19
-31 54 -43 76 -11 23 -26 47 -34 53 -8 7 -20 29 -27 49 -7 20 -20 48 -30 61
-11 13 -19 29 -19 36 0 7 -13 36 -29 66 -15 30 -31 67 -35 83 -4 16 -18 45
-32 65 -15 23 -24 50 -24 75 0 22 -9 53 -21 72 -11 18 -25 64 -31 101 -6 37
-18 84 -28 103 -10 19 -21 71 -25 115 -4 44 -16 114 -28 155 -21 70 -22 97
-22 390 0 293 1 320 21 385 12 39 24 107 28 153 3 50 13 101 26 128 11 25 25
76 31 112 7 36 20 80 30 97 11 16 19 46 19 66 0 22 10 51 24 72 14 20 29 52
35 71 5 20 18 48 29 63 11 15 23 42 26 59 4 17 18 46 32 65 13 18 24 40 24 49
0 9 11 31 25 50 14 19 25 39 25 46 0 7 11 26 25 42 13 16 29 40 35 53 17 38
101 157 137 194 13 12 23 27 23 32 0 11 9 23 114 144 89 103 298 304 344 332
17 10 32 23 32 27 0 5 10 12 23 16 12 4 31 15 42 26 50 46 102 86 121 92 12 4
29 15 39 26 10 11 23 20 29 20 6 0 29 14 50 30 22 17 47 30 56 30 9 0 25 9 35
20 9 10 34 25 54 31 20 7 46 20 59 30 13 10 37 21 55 25 18 3 43 15 56 25 13
11 41 24 63 29 21 6 55 22 75 35 21 15 50 25 71 25 19 0 49 9 66 19 17 10 65
24 105 30 41 7 89 20 105 30 20 12 61 21 116 26 47 3 121 15 165 25 44 11 89
21 100 24 11 2 153 3 315 2 249 -2 302 -5 339 -19z"></path>
<path d="M2940 5613 c-55 -22 -180 -145 -195 -193 -4 -13 -16 -36 -27 -50 -10
-14 -22 -50 -27 -80 -5 -30 -17 -75 -27 -100 -12 -31 -17 -77 -17 -150 -1 -93
2 -112 26 -167 15 -34 27 -76 27 -92 0 -29 19 -58 75 -114 41 -40 84 -57 149
-57 43 0 61 5 83 24 15 13 37 26 48 30 21 6 95 87 95 104 0 5 14 26 30 47 17
21 30 48 30 62 0 13 12 47 28 76 27 51 27 55 27 237 0 171 -2 188 -21 220 -12
19 -27 51 -34 70 -7 21 -36 56 -71 88 -58 51 -60 52 -121 51 -35 0 -70 -3 -78
-6z"></path>
<path d="M3917 5612 c-28 -11 -127 -114 -127 -131 0 -9 -12 -41 -27 -71 -27
-54 -28 -58 -26 -226 1 -160 3 -174 26 -220 13 -27 27 -66 30 -88 3 -21 15
-47 27 -58 11 -10 20 -23 20 -27 0 -21 89 -114 140 -146 47 -30 62 -35 116
-35 52 0 67 4 92 25 17 14 35 25 41 25 6 0 17 13 25 28 8 16 22 34 30 41 9 8
16 25 16 40 0 14 12 51 27 81 26 51 27 64 28 190 0 119 -3 141 -22 184 -13 27
-23 60 -23 75 0 14 -9 42 -19 61 -11 19 -27 51 -37 70 -19 41 -146 168 -181
181 -28 10 -130 11 -156 1z"></path>
<path d="M2330 4126 c-68 -27 -96 -35 -142 -41 -26 -3 -57 -14 -70 -24 -13
-10 -39 -22 -58 -26 -19 -4 -48 -17 -65 -29 -16 -12 -41 -27 -55 -34 -27 -13
-79 -49 -123 -85 -43 -35 -170 -160 -190 -187 -44 -62 -67 -97 -79 -120 -7
-14 -20 -36 -30 -49 -10 -13 -23 -42 -29 -64 -6 -22 -19 -52 -30 -66 -10 -14
-22 -48 -25 -76 -4 -27 -16 -66 -28 -85 -20 -33 -21 -48 -21 -265 0 -225 1
-231 28 -304 15 -41 27 -87 27 -101 0 -15 9 -38 19 -52 11 -13 24 -42 30 -65
6 -23 16 -45 22 -49 6 -3 18 -23 28 -43 9 -20 27 -51 41 -69 55 -72 145 -177
158 -185 7 -5 26 -20 41 -35 43 -40 109 -92 116 -92 4 0 20 -11 37 -25 16 -14
35 -25 42 -25 7 0 27 -11 46 -25 19 -14 43 -25 54 -25 12 0 48 -14 81 -30 36
-18 76 -30 99 -30 22 0 74 -10 115 -22 101 -29 277 -31 366 -4 33 10 90 22
127 26 44 5 76 15 94 29 15 11 36 21 47 21 11 0 45 12 75 26 30 14 84 30 120
35 36 5 90 17 121 26 77 23 298 24 358 0 24 -9 71 -19 105 -22 35 -4 84 -17
109 -30 25 -13 63 -26 85 -30 21 -4 52 -16 68 -27 18 -13 55 -24 100 -29 39
-4 91 -15 116 -25 66 -24 264 -25 350 0 36 10 94 22 130 27 36 5 87 20 114 34
27 14 60 25 72 25 13 0 26 5 30 11 3 6 30 22 58 34 29 13 58 30 65 39 7 9 18
16 23 16 13 0 144 112 202 174 62 65 126 147 151 195 11 20 28 48 38 61 9 14
17 34 17 45 0 12 11 36 25 55 15 20 25 47 25 67 0 18 12 63 27 100 27 67 28
71 28 293 0 197 -2 229 -18 258 -10 17 -22 56 -27 85 -5 28 -20 75 -34 102
-13 28 -32 66 -41 85 -31 67 -48 95 -70 120 -13 14 -26 35 -30 48 -3 12 -15
27 -26 32 -10 6 -19 17 -19 24 0 18 -195 196 -215 196 -4 0 -23 14 -42 30 -18
17 -39 30 -46 30 -7 0 -28 11 -46 24 -19 14 -47 28 -64 32 -17 3 -43 15 -57
26 -15 10 -53 23 -87 28 -33 4 -76 16 -94 27 -30 16 -59 18 -254 18 -204 0
-224 -2 -270 -22 -27 -12 -70 -24 -95 -28 -24 -3 -58 -14 -75 -24 -16 -11 -46
-22 -65 -26 -19 -4 -46 -16 -59 -26 -13 -11 -42 -24 -64 -30 -22 -6 -52 -19
-66 -30 -14 -10 -53 -24 -86 -30 -33 -6 -75 -17 -94 -25 -43 -18 -88 -18 -139
0 -23 8 -66 20 -97 25 -31 6 -69 19 -84 30 -15 11 -47 25 -70 30 -24 5 -53 18
-64 29 -12 11 -38 22 -58 26 -21 4 -48 15 -62 26 -14 11 -47 23 -74 26 -26 3
-73 15 -103 27 -48 18 -81 21 -255 24 -152 2 -208 0 -235 -11z"></path>
</g>
</svg>