 <svg version="1.0" xmlns="http://www.w3.org/2000/svg" width="700.000000pt" height="700.000000pt" viewBox="0 0 700.000000 700.000000" preserveAspectRatio="xMidYMid meet">
<metadata>
Created by potrace 1.12, written by Peter Selinger 2001-2015
</metadata>
<g transform="translate(0.000000,700.000000) scale(0.100000,-0.100000)" fill="#000000" stroke="none">
<path d="M3261 6982 c-15 -29 -83 -43 -245 -52 -112 -6 -164 -13 -201 -28 -27
-11 -81 -23 -120 -26 -38 -4 -87 -16 -107 -26 -21 -11 -65 -24 -99 -29 -34 -6
-72 -17 -84 -25 -13 -9 -45 -21 -72 -27 -26 -7 -70 -23 -98 -36 -27 -12 -60
-23 -71 -23 -12 0 -33 -9 -47 -20 -15 -12 -49 -28 -76 -36 -28 -8 -53 -19 -56
-24 -3 -5 -27 -20 -53 -33 -26 -13 -67 -34 -92 -47 -25 -12 -52 -28 -60 -35
-8 -7 -26 -16 -40 -20 -14 -4 -34 -16 -45 -26 -11 -10 -37 -25 -58 -34 -20 -8
-37 -19 -37 -24 0 -5 -17 -20 -37 -33 -35 -22 -78 -51 -139 -93 -33 -22 -277
-227 -310 -259 -12 -12 -30 -29 -40 -38 -11 -9 -24 -23 -31 -30 -7 -7 -18 -18
-25 -25 -27 -25 -68 -72 -179 -205 -132 -158 -150 -182 -173 -223 -9 -16 -32
-50 -51 -75 -19 -25 -43 -61 -54 -81 -11 -19 -26 -41 -35 -48 -8 -7 -18 -26
-21 -42 -4 -16 -11 -31 -16 -35 -6 -3 -21 -29 -35 -57 -42 -86 -78 -154 -90
-168 -6 -8 -15 -25 -18 -39 -4 -14 -17 -47 -30 -75 -37 -78 -67 -155 -81 -210
-7 -27 -23 -68 -34 -90 -12 -21 -21 -55 -21 -75 0 -19 -11 -57 -23 -85 -13
-27 -27 -81 -31 -120 -4 -38 -16 -90 -27 -115 -16 -35 -22 -79 -29 -202 -10
-175 -21 -233 -50 -248 -19 -10 -20 -22 -20 -240 0 -217 1 -230 20 -240 29
-16 40 -70 49 -240 7 -117 13 -167 28 -205 11 -27 24 -81 28 -118 4 -38 18
-92 31 -120 13 -29 24 -68 24 -88 0 -20 11 -56 23 -80 13 -24 27 -62 31 -84 4
-22 16 -53 26 -70 10 -16 21 -48 25 -70 4 -22 18 -56 30 -75 13 -19 26 -50 30
-67 4 -18 11 -35 16 -39 6 -3 21 -29 35 -57 14 -29 40 -79 59 -112 37 -64 55
-101 55 -114 0 -4 9 -16 20 -26 12 -10 29 -37 39 -59 10 -23 36 -61 58 -86 22
-25 43 -53 46 -64 15 -40 254 -325 371 -442 119 -119 383 -340 451 -378 17 -9
50 -32 75 -51 25 -20 59 -42 75 -49 17 -8 39 -23 49 -35 10 -11 32 -23 50 -27
17 -3 40 -14 51 -24 22 -19 52 -36 135 -76 30 -14 62 -32 70 -39 8 -7 33 -18
55 -25 22 -7 50 -21 62 -30 13 -10 40 -21 60 -25 20 -4 53 -15 73 -25 20 -10
54 -22 75 -26 22 -4 60 -18 84 -31 24 -12 61 -23 81 -23 20 0 57 -11 81 -23
28 -15 72 -27 118 -31 41 -4 97 -17 125 -28 38 -15 89 -22 206 -28 170 -10
224 -21 243 -51 11 -18 25 -19 237 -19 212 0 226 1 237 19 19 30 73 41 243 50
105 6 168 14 195 25 21 9 80 23 129 31 50 7 109 23 131 34 21 12 55 21 75 21
19 0 59 11 88 25 30 14 62 25 72 25 9 0 38 11 63 24 25 14 63 28 84 32 21 3
54 17 73 29 19 13 49 27 65 31 17 4 41 15 55 24 14 10 45 27 70 39 84 41 130
67 142 79 7 7 19 12 29 12 9 0 32 12 52 28 37 29 80 56 134 85 18 9 33 22 33
27 0 5 15 17 33 26 17 9 45 26 60 38 48 36 301 248 329 275 14 14 31 31 37 36
44 40 125 131 227 252 137 164 155 187 178 228 9 17 32 50 51 75 19 25 43 61
54 81 11 19 26 41 35 48 8 7 18 26 21 42 4 16 11 31 16 34 5 3 19 27 32 53 13
26 39 74 57 107 18 33 39 71 46 85 8 14 14 32 14 41 0 8 11 30 25 49 14 19 25
45 25 59 0 14 14 53 30 86 17 33 30 68 30 78 0 10 9 35 19 55 11 21 25 67 31
102 6 35 20 80 30 99 9 20 22 72 28 116 6 44 18 98 28 120 11 27 19 89 24 201
9 164 23 228 55 240 13 5 15 38 15 234 0 196 -2 229 -15 234 -32 12 -47 76
-55 240 -6 123 -12 173 -27 211 -11 28 -23 82 -27 120 -4 39 -16 88 -27 109
-12 22 -25 67 -30 100 -6 33 -18 74 -28 91 -10 16 -22 48 -26 70 -3 22 -15 55
-26 73 -10 18 -22 51 -25 72 -4 22 -17 54 -30 72 -13 17 -24 37 -24 44 0 7
-21 52 -46 101 -26 48 -54 102 -62 118 -8 17 -24 41 -34 54 -10 13 -18 32 -18
42 0 10 -13 33 -28 51 -15 18 -33 44 -40 58 -7 14 -28 45 -47 70 -19 25 -44
61 -55 80 -27 46 -47 73 -161 210 -168 202 -213 247 -416 418 -189 159 -215
180 -239 189 -11 3 -37 22 -59 40 -56 47 -58 49 -96 68 -19 10 -47 28 -62 41
-16 13 -37 24 -47 24 -10 0 -21 4 -24 9 -3 5 -29 21 -58 35 -29 15 -80 43
-113 62 -70 40 -101 54 -119 54 -7 0 -27 11 -46 25 -19 14 -45 25 -59 25 -14
0 -53 14 -86 30 -33 16 -69 30 -80 30 -11 0 -42 12 -70 25 -27 14 -66 25 -85
25 -20 0 -54 9 -75 21 -22 11 -81 27 -131 34 -49 8 -108 22 -129 31 -27 11
-90 19 -195 25 -171 9 -224 20 -240 49 -10 19 -23 20 -240 20 -212 0 -230 -1
-239 -18z m608 -645 c24 -10 87 -22 140 -27 53 -6 119 -19 146 -30 28 -11 78
-24 111 -29 34 -5 79 -18 100 -29 22 -11 59 -22 83 -25 24 -3 56 -15 72 -26
15 -11 40 -23 55 -27 25 -6 104 -42 169 -77 11 -6 31 -16 45 -22 14 -7 39 -20
55 -28 17 -9 49 -25 71 -36 23 -11 45 -25 49 -31 4 -7 22 -19 39 -26 47 -22
161 -103 201 -141 12 -13 27 -23 32 -23 5 0 20 -11 33 -25 13 -14 29 -25 36
-25 7 0 31 -17 52 -37 151 -144 234 -228 294 -298 38 -44 76 -88 85 -97 9 -10
21 -26 27 -36 20 -35 50 -77 78 -110 15 -18 28 -39 28 -46 0 -7 11 -23 25 -36
14 -13 25 -28 25 -34 0 -6 14 -29 30 -50 17 -22 30 -46 30 -54 0 -8 11 -27 25
-44 14 -16 25 -37 25 -47 0 -9 11 -32 24 -50 14 -19 28 -48 32 -65 3 -17 15
-44 26 -59 11 -15 24 -44 30 -64 6 -21 21 -53 34 -72 14 -20 24 -50 24 -70 0
-18 9 -48 19 -65 10 -17 24 -64 30 -104 6 -41 20 -90 30 -111 12 -22 22 -71
26 -121 4 -47 17 -121 29 -165 19 -73 21 -105 21 -375 0 -270 -2 -302 -22
-380 -12 -47 -24 -120 -27 -163 -4 -48 -13 -92 -26 -117 -11 -21 -25 -72 -30
-111 -6 -40 -19 -87 -30 -104 -11 -18 -20 -48 -20 -67 0 -21 -10 -47 -25 -68
-14 -19 -30 -53 -36 -75 -6 -22 -19 -51 -29 -65 -10 -14 -21 -39 -24 -56 -4
-17 -18 -46 -32 -65 -13 -18 -24 -41 -24 -50 0 -10 -11 -31 -25 -47 -14 -17
-25 -35 -25 -42 0 -16 -68 -125 -91 -146 -10 -9 -19 -23 -19 -30 0 -7 -24 -41
-52 -76 -54 -65 -66 -81 -96 -132 -24 -41 -398 -416 -415 -416 -7 0 -24 -11
-37 -25 -13 -14 -28 -25 -33 -25 -5 0 -32 -20 -60 -44 -29 -24 -70 -55 -92
-70 -22 -14 -51 -33 -65 -43 -79 -52 -98 -63 -111 -63 -9 0 -24 -9 -34 -20
-10 -11 -35 -25 -56 -30 -21 -6 -45 -18 -54 -26 -9 -9 -37 -22 -62 -30 -26 -8
-54 -20 -62 -28 -9 -7 -38 -21 -65 -30 -27 -9 -57 -23 -67 -32 -10 -9 -37 -18
-61 -21 -24 -3 -61 -15 -82 -25 -21 -11 -67 -24 -100 -29 -34 -4 -82 -17 -106
-28 -25 -11 -81 -23 -125 -26 -44 -4 -116 -17 -160 -29 -73 -19 -104 -21 -380
-21 -276 0 -306 2 -375 22 -41 11 -113 24 -160 28 -52 4 -100 14 -123 26 -20
10 -70 24 -110 30 -39 6 -83 19 -97 29 -14 9 -46 19 -72 22 -25 3 -59 14 -75
26 -15 11 -45 24 -65 30 -21 6 -50 19 -65 30 -15 11 -42 23 -59 26 -17 4 -46
18 -65 32 -18 13 -41 24 -50 24 -10 0 -30 11 -46 24 -15 13 -39 27 -52 31 -24
7 -76 39 -121 73 -14 10 -36 25 -50 32 -22 12 -64 43 -112 84 -9 8 -26 20 -38
26 -12 6 -29 18 -38 26 -9 8 -39 33 -67 56 -112 91 -344 329 -380 389 -11 18
-25 41 -31 52 -6 10 -21 27 -33 38 -11 11 -21 23 -21 28 0 4 -8 16 -19 27 -21
23 -69 94 -90 133 -7 14 -21 35 -31 46 -10 11 -21 31 -25 45 -4 14 -18 38 -31
53 -13 16 -24 36 -24 46 0 9 -11 32 -24 50 -14 19 -28 48 -32 65 -4 17 -15 42
-25 55 -11 13 -24 42 -30 64 -6 22 -22 57 -35 76 -15 23 -24 50 -24 75 0 22
-9 53 -21 72 -11 18 -25 64 -31 101 -6 37 -18 84 -28 103 -10 19 -21 71 -25
115 -4 44 -16 114 -28 155 -21 70 -22 97 -22 390 0 293 1 320 21 385 12 39 24
107 28 153 3 50 13 101 26 128 11 25 25 76 31 112 7 36 20 80 30 97 11 16 19
46 19 66 0 22 10 51 24 72 14 20 29 52 35 71 5 20 18 48 29 63 11 15 23 42 26
59 4 17 18 46 32 65 13 18 24 40 24 49 0 9 11 31 25 50 14 19 25 39 25 46 0 7
11 26 25 42 13 16 29 40 35 53 17 38 101 157 137 194 13 12 23 27 23 32 0 11
9 23 114 144 89 103 298 304 344 332 17 10 32 23 32 27 0 5 10 12 23 16 12 4
31 15 42 26 50 46 102 86 121 92 12 4 29 15 39 26 10 11 23 20 29 20 6 0 29
14 50 30 22 17 47 30 56 30 9 0 25 9 35 20 9 10 34 25 54 31 20 7 46 20 59 30
13 10 37 21 55 25 18 3 43 15 56 25 13 11 41 24 63 29 21 6 55 22 75 35 21 15
50 25 71 25 19 0 49 9 66 19 17 10 65 24 105 30 41 7 89 20 105 30 20 12 61
21 116 26 47 3 121 15 165 25 44 11 89 21 100 24 11 2 153 3 315 2 249 -2 302
-5 339 -19z"></path>
<path d="M2714 4526 c-69 -14 -128 -56 -193 -137 -34 -43 -41 -60 -51 -132
-18 -118 -3 -234 36 -283 55 -69 117 -122 157 -134 22 -6 52 -19 66 -28 42
-28 153 -22 226 11 33 16 67 33 75 38 8 5 27 17 43 27 15 9 30 25 33 35 3 9
14 21 24 27 10 5 21 24 25 42 4 18 16 47 26 65 11 17 22 60 26 95 5 57 2 72
-26 135 -17 39 -31 75 -31 80 0 11 -89 102 -129 131 -52 39 -188 51 -307 28z"></path>
<path d="M4061 4529 c-80 -14 -198 -117 -221 -193 -7 -23 -19 -49 -28 -60 -27
-29 -24 -170 4 -216 12 -19 25 -48 28 -64 4 -17 17 -40 29 -52 12 -13 27 -28
34 -34 39 -41 63 -57 103 -72 25 -9 65 -24 90 -33 51 -19 137 -15 173 7 12 8
42 22 67 31 45 17 100 64 152 130 40 50 54 161 37 280 -11 77 -17 94 -49 135
-21 26 -60 66 -87 89 -44 37 -58 43 -127 52 -88 12 -129 12 -205 0z"></path>
<path d="M2894 3198 c-12 -7 -37 -22 -55 -32 -66 -37 -87 -65 -103 -140 -15
-67 -15 -75 3 -139 19 -63 61 -123 129 -181 13 -10 41 -39 138 -139 23 -23 60
-58 82 -77 42 -35 51 -64 33 -98 -5 -10 -90 -98 -188 -197 -176 -178 -178
-181 -196 -245 -16 -63 -16 -68 2 -134 16 -57 26 -75 63 -107 48 -43 92 -59
158 -59 67 1 116 15 152 45 31 25 304 294 341 335 10 12 30 20 48 20 26 0 43
-13 103 -76 83 -89 237 -240 284 -279 39 -33 85 -44 173 -45 65 0 69 1 122 46
31 25 59 53 62 63 35 110 36 132 14 200 -21 62 -31 74 -196 241 -96 96 -179
183 -184 192 -15 28 -10 67 10 78 11 5 95 86 187 180 l168 169 18 73 c18 69
18 74 2 137 -19 69 -37 92 -119 148 -56 37 -152 39 -210 3 -36 -23 -337 -316
-377 -367 -13 -16 -28 -23 -52 -23 -32 0 -49 15 -198 166 -195 199 -253 242
-335 250 -39 3 -65 1 -79 -8z"></path>
</g>
</svg>