 <svg version="1.0" xmlns="http://www.w3.org/2000/svg" width="700.000000pt" height="711.000000pt" viewBox="0 0 700.000000 711.000000" preserveAspectRatio="xMidYMid meet">
<metadata>
Created by potrace 1.12, written by Peter Selinger 2001-2015
</metadata>
<g transform="translate(0.000000,711.000000) scale(0.100000,-0.100000)" fill="#000000" stroke="none">
<path d="M1160 6111 c-46 -14 -125 -59 -146 -83 -12 -12 -33 -50 -48 -83 l-26
-60 2 -2340 3 -2340 26 -55 c32 -66 66 -98 138 -131 l54 -24 1161 0 1161 0 3
978 c1 648 -1 985 -8 997 -10 18 -27 19 -291 22 l-281 3 -24 28 -25 29 3 355
c3 338 4 355 22 369 16 11 74 14 297 14 239 0 280 2 293 16 14 13 16 63 16
387 1 311 3 379 16 412 9 22 23 60 31 85 8 25 20 54 26 65 6 11 19 36 28 55 9
19 36 62 59 95 22 33 51 76 64 95 32 49 133 148 170 167 17 9 44 26 59 39 16
13 34 24 40 24 7 0 28 11 47 24 19 13 46 26 60 30 14 5 52 18 85 31 33 13 89
26 125 30 36 3 113 13 173 22 94 15 129 15 285 5 97 -7 239 -15 315 -19 99 -4
143 -10 153 -20 11 -12 14 -74 14 -348 0 -302 -2 -335 -17 -354 -17 -19 -30
-21 -268 -24 -137 -3 -277 -9 -310 -16 -33 -6 -75 -13 -93 -16 -37 -7 -122
-83 -122 -110 0 -8 -11 -42 -25 -75 -25 -58 -25 -65 -25 -320 l0 -260 26 -10
c14 -6 168 -10 362 -10 289 0 341 -2 360 -16 26 -18 28 -47 8 -136 -8 -35 -17
-119 -20 -188 -4 -69 -14 -156 -22 -195 -8 -38 -20 -104 -25 -145 -8 -61 -14
-79 -35 -98 -25 -22 -28 -22 -324 -22 -258 0 -301 -2 -314 -16 -14 -14 -16
-117 -16 -988 0 -814 2 -975 14 -985 10 -8 206 -11 737 -9 l724 3 70 35 c69
35 100 69 135 148 7 16 9 788 8 2390 l-3 2367 -27 40 c-15 22 -34 49 -42 61
-8 11 -48 35 -90 52 l-76 32 -2322 -1 c-1278 0 -2334 -4 -2348 -8z"></path>
</g>
</svg>