 <svg version="1.0" xmlns="http://www.w3.org/2000/svg" width="700.000000pt" height="622.000000pt" viewBox="0 0 700.000000 622.000000" preserveAspectRatio="xMidYMid meet">
<metadata>
Created by potrace 1.12, written by Peter Selinger 2001-2015
</metadata>
<g transform="translate(0.000000,622.000000) scale(0.100000,-0.100000)" fill="#000000" stroke="none">
<path d="M3490 4980 c-30 -4 -99 -8 -153 -9 -70 -1 -114 -7 -154 -21 -32 -11
-71 -20 -88 -20 -16 0 -50 -9 -74 -20 -24 -11 -52 -20 -62 -20 -36 0 -301
-129 -409 -200 -8 -5 -28 -17 -44 -26 -108 -60 -252 -190 -380 -344 -39 -47
-73 -87 -76 -90 -21 -20 -170 -263 -170 -278 0 -4 -12 -29 -25 -57 -14 -27
-25 -57 -25 -65 0 -9 -5 -21 -11 -27 -5 -5 -16 -34 -24 -64 -7 -30 -17 -67
-23 -84 -38 -114 -71 -352 -72 -530 -1 -129 20 -363 36 -410 7 -22 18 -65 23
-95 16 -91 63 -222 128 -355 55 -112 66 -130 154 -255 102 -145 339 -378 452
-445 166 -97 200 -117 219 -125 13 -6 46 -23 73 -39 28 -17 57 -30 65 -31 8 0
33 -9 55 -20 22 -11 48 -19 57 -20 10 0 40 -9 68 -20 28 -11 63 -20 78 -20 15
0 52 -8 82 -19 126 -43 689 -44 840 -1 36 10 85 23 110 30 157 40 253 85 484
225 120 73 247 193 382 360 77 95 183 264 199 316 4 13 11 29 15 34 4 6 19 39
32 75 68 182 94 289 124 505 26 194 9 598 -28 643 -15 17 -1698 18 -1716 0
-19 -19 -17 -681 2 -697 11 -9 143 -12 506 -10 487 1 492 1 513 -20 20 -20 20
-22 4 -56 -9 -20 -17 -43 -17 -52 0 -30 -93 -209 -141 -268 -100 -126 -226
-227 -371 -298 -53 -26 -101 -47 -107 -47 -6 0 -22 -7 -35 -15 -13 -9 -48 -20
-77 -25 -30 -6 -76 -15 -104 -21 -74 -16 -395 -13 -437 4 -18 8 -56 17 -83 21
-28 4 -60 14 -72 22 -12 8 -28 14 -35 14 -17 0 -188 87 -209 106 -8 8 -18 14
-22 14 -7 0 -62 37 -96 65 -76 63 -197 198 -266 300 -32 46 -95 181 -102 217
-3 18 -12 46 -20 61 -8 15 -18 63 -24 105 -5 42 -14 100 -19 127 -12 68 -12
212 0 255 6 19 15 65 20 101 5 36 16 79 25 95 8 16 15 35 15 41 0 15 47 111
78 163 12 19 30 51 41 70 38 68 197 255 261 307 36 29 89 65 118 80 29 15 74
40 101 54 185 98 549 138 766 84 155 -39 344 -133 448 -223 16 -14 35 2 267
233 138 137 250 253 250 257 0 25 -207 173 -330 236 -36 19 -72 38 -80 42 -8
5 -51 26 -95 46 -77 35 -117 49 -215 74 -25 7 -76 20 -115 30 -38 10 -124 21
-190 24 -66 3 -147 8 -180 10 -33 2 -85 1 -115 -4z"></path>
</g>
</svg>