 <svg version="1.0" xmlns="http://www.w3.org/2000/svg" width="700.000000pt" height="543.000000pt" viewBox="0 0 700.000000 543.000000" preserveAspectRatio="xMidYMid meet">
<metadata>
Created by potrace 1.12, written by Peter Selinger 2001-2015
</metadata>
<g transform="translate(0.000000,543.000000) scale(0.100000,-0.100000)" fill="#000000" stroke="none">
<path d="M2600 4384 c-47 -7 -95 -18 -108 -24 -13 -5 -30 -10 -38 -10 -14 0
-111 -45 -175 -81 -153 -87 -293 -260 -369 -454 -48 -124 -56 -371 -17 -515
73 -270 277 -489 552 -593 77 -29 191 -47 292 -47 276 0 534 132 703 359 43
59 120 209 120 236 0 9 4 24 10 34 5 10 17 67 26 127 13 92 14 123 4 194 -31
227 -103 377 -252 527 -74 76 -207 169 -263 185 -11 4 -45 16 -75 27 -59 23
-230 52 -289 50 -20 -1 -74 -8 -121 -15z"></path>
<path d="M4060 4388 c-157 -21 -229 -60 -250 -132 -12 -45 -12 -46 39 -148 29
-56 59 -120 67 -142 39 -110 46 -132 55 -180 6 -28 14 -71 19 -96 11 -57 12
-261 0 -320 -4 -25 -13 -71 -18 -102 -17 -93 -38 -149 -119 -315 -52 -106 -54
-113 -43 -152 12 -47 44 -83 86 -98 246 -88 562 -41 779 116 235 170 365 424
365 717 0 323 -193 628 -486 770 -93 45 -148 61 -266 79 -107 16 -131 17 -228
3z"></path>
<path d="M1781 2592 c-73 -75 -117 -128 -183 -217 -51 -70 -108 -154 -108
-160 0 -2 -13 -23 -29 -47 -59 -89 -166 -327 -215 -478 -46 -144 -48 -160 -31
-204 19 -47 60 -94 93 -107 13 -5 632 -9 1430 -9 l1407 0 39 27 c47 34 76 85
76 135 0 47 -66 249 -131 398 -94 218 -272 485 -441 663 -58 61 -67 67 -104
67 -36 0 -49 -8 -112 -65 -40 -35 -98 -81 -129 -102 -77 -51 -246 -133 -273
-133 -6 0 -32 -6 -58 -14 -88 -26 -168 -36 -283 -36 -113 0 -262 20 -299 40
-10 5 -26 10 -34 10 -9 0 -45 14 -79 30 -35 17 -67 30 -70 30 -21 0 -172 104
-237 163 -68 63 -92 77 -128 77 -31 0 -45 -9 -101 -68z"></path>
<path d="M4872 2576 c-170 -143 -342 -226 -522 -251 -68 -9 -81 -31 -45 -75
28 -34 167 -303 205 -395 4 -11 22 -53 39 -94 17 -40 31 -80 31 -87 0 -7 6
-28 14 -46 27 -65 46 -134 54 -193 l7 -60 459 -3 460 -2 35 23 c52 35 85 105
76 164 -4 25 -10 53 -15 62 -4 9 -16 43 -25 76 -19 63 -22 70 -78 205 -101
241 -272 502 -453 693 -58 60 -69 67 -103 67 -34 0 -52 -10 -139 -84z"></path>
</g>
</svg>