 <svg version="1.0" xmlns="http://www.w3.org/2000/svg" width="700.000000pt" height="713.000000pt" viewBox="0 0 700.000000 713.000000" preserveAspectRatio="xMidYMid meet">
<metadata>
Created by potrace 1.12, written by Peter Selinger 2001-2015
</metadata>
<g transform="translate(0.000000,713.000000) scale(0.100000,-0.100000)" fill="#000000" stroke="none">
<path d="M1910 5520 c-59 -19 -108 -52 -145 -97 l-40 -48 0 -1875 0 -1876 38
-51 c20 -28 50 -56 65 -62 15 -7 41 -19 57 -29 28 -16 126 -17 1350 -19 864
-2 1333 1 1357 7 20 6 50 26 67 46 l31 35 0 138 c0 176 -4 197 -44 219 -29 16
-122 17 -1196 22 l-1165 5 -42 30 c-23 17 -47 40 -52 53 -17 36 -15 2929 2
2962 7 13 33 37 58 53 l46 28 1120 -1 c1156 0 1197 1 1245 40 22 17 23 27 26
161 5 191 2 203 -56 240 l-46 29 -1325 -1 c-730 0 -1337 -4 -1351 -9z"></path>
<path d="M4812 4123 c-50 -24 -65 -63 -70 -180 -6 -132 -25 -170 -97 -195 -46
-16 -129 -17 -966 -18 -1139 0 -1034 22 -1034 -219 0 -80 3 -157 7 -171 5 -16
24 -36 50 -50 l43 -25 950 -5 c873 -5 953 -6 977 -22 49 -32 65 -74 73 -193 9
-140 21 -165 97 -188 18 -6 138 50 171 81 12 11 40 29 62 41 22 12 56 33 75
46 19 13 49 34 65 45 51 36 127 84 154 99 14 8 41 27 59 43 18 15 38 28 45 28
7 0 28 13 47 30 19 16 40 29 47 30 6 0 29 15 51 33 22 17 54 40 71 49 38 21
71 73 71 114 0 39 -35 92 -80 121 -19 12 -49 33 -66 47 -18 14 -36 26 -42 26
-6 0 -23 11 -39 24 -15 13 -44 31 -63 41 -19 10 -48 29 -65 42 -16 14 -61 45
-100 69 -38 24 -83 53 -100 64 -16 12 -61 41 -100 65 -38 24 -78 51 -87 59
-19 17 -153 86 -165 86 -5 0 -23 -8 -41 -17z"></path>
</g>
</svg>