 <svg version="1.0" xmlns="http://www.w3.org/2000/svg" width="700.000000pt" height="626.000000pt" viewBox="0 0 700.000000 626.000000" preserveAspectRatio="xMidYMid meet">
<metadata>
Created by potrace 1.12, written by Peter Selinger 2001-2015
</metadata>
<g transform="translate(0.000000,626.000000) scale(0.100000,-0.100000)" fill="#000000" stroke="none">
<path d="M1245 5021 c-72 -18 -177 -112 -198 -176 -9 -31 -12 -410 -12 -1740
0 -1624 1 -1702 18 -1748 10 -26 23 -47 27 -47 5 0 17 -13 26 -29 18 -30 88
-68 169 -91 29 -8 638 -10 2295 -8 l2255 3 54 27 c104 51 160 132 181 261 7
41 9 616 8 1682 l-3 1620 -32 65 c-36 75 -70 113 -139 155 l-49 30 -2285 2
c-1257 0 -2298 -2 -2315 -6z m3649 -587 c27 -26 18 -47 -41 -99 -31 -27 -61
-55 -67 -61 -6 -6 -72 -64 -146 -129 -74 -65 -142 -125 -151 -134 -9 -9 -49
-45 -90 -81 -40 -36 -87 -78 -104 -95 -17 -16 -65 -59 -105 -95 -41 -36 -104
-92 -140 -125 -36 -33 -97 -87 -135 -120 -38 -33 -83 -73 -100 -90 -123 -117
-220 -202 -243 -212 -32 -14 -61 -8 -82 17 -8 10 -58 55 -110 100 -52 46 -149
133 -214 194 -65 61 -134 125 -151 141 -172 158 -467 428 -535 490 -25 22 -89
81 -143 130 -54 50 -105 94 -113 98 -23 13 -18 66 9 77 12 5 577 9 1334 9
1180 1 1313 -1 1327 -15z m-3189 -380 c28 -25 106 -96 173 -157 68 -60 136
-122 151 -136 15 -14 71 -66 124 -116 54 -49 122 -113 153 -142 30 -28 91 -84
136 -125 46 -40 92 -84 105 -98 25 -28 30 -75 9 -83 -15 -6 -88 -65 -280 -225
-141 -119 -151 -127 -305 -250 -18 -15 -48 -40 -67 -57 -18 -16 -48 -42 -66
-57 -177 -147 -218 -170 -232 -132 -8 21 -8 1609 1 1617 17 17 53 3 98 -39z
m3763 -18 c4 -11 5 -369 2 -795 -4 -695 -7 -775 -21 -784 -13 -8 -32 4 -93 54
-369 307 -382 317 -492 404 -21 17 -50 41 -66 55 -35 32 -80 70 -190 161 -96
78 -104 95 -65 141 12 14 81 77 152 140 124 108 200 177 271 243 83 78 218
200 304 274 52 46 102 91 110 100 37 43 76 46 88 7z m-2330 -1296 c46 -43 133
-124 195 -179 62 -55 129 -115 150 -135 41 -39 48 -41 80 -25 22 12 139 111
187 159 14 14 70 66 125 115 54 50 109 100 121 113 44 45 90 27 203 -76 20
-19 52 -46 71 -60 19 -15 42 -34 51 -42 9 -8 40 -33 69 -55 29 -22 66 -51 82
-65 15 -14 82 -70 149 -125 66 -55 196 -163 288 -240 92 -77 193 -160 226
-185 32 -25 66 -53 76 -62 10 -9 29 -24 43 -33 28 -19 33 -44 14 -63 -17 -17
-3449 -17 -3466 0 -13 13 -16 48 -4 48 8 0 52 36 285 228 65 53 153 125 195
160 95 78 176 146 239 200 18 15 55 45 83 67 28 22 113 92 188 155 208 174
215 179 242 179 18 1 49 -22 108 -79z"></path>
</g>
</svg>