<?xml version="1.0" standalone="no"?>
<!DOCTYPE svg PUBLIC "-//W3C//DTD SVG 20010904//EN"
 "http://www.w3.org/TR/2001/REC-SVG-20010904/DTD/svg10.dtd">
<svg version="1.0" xmlns="http://www.w3.org/2000/svg" width="2444.000000pt" height="2178.000000pt" viewBox="0 0 2444.000000 2178.000000" preserveAspectRatio="xMidYMid meet"><g transform="translate(0.000000,2178.000000) scale(0.100000,-0.100000)" fill="#b2b2b2" stroke="none">
<path d="M10130 20929 c-2027 -107 -3920 -950 -5354 -2385 -1170 -1170 -1943
-2633 -2256 -4268 -137 -716 -174 -1539 -104 -2280 98 -1041 380 -2018 849
-2941 1255 -2468 3688 -4145 6425 -4429 315 -33 468 -40 860 -41 609 0 1064
45 1645 165 985 203 2003 619 2830 1157 l170 111 2543 -2542 2542 -2541 1052
1052 1053 1053 -1160 1162 c-639 640 -1783 1787 -2543 2550 l-1381 1386 102
154 c702 1051 1153 2309 1291 3603 34 318 41 468 41 870 -1 397 -8 547 -41
865 -165 1595 -817 3134 -1851 4370 -1268 1515 -3008 2510 -4958 2834 -524 88
-1206 124 -1755 95z m740 -2719 c1076 -67 2087 -437 2936 -1076 957 -720 1661
-1742 1984 -2880 145 -510 204 -945 204 -1494 0 -349 -13 -536 -59 -830 -210
-1361 -931 -2589 -2025 -3451 -815 -642 -1789 -1030 -2850 -1136 -243 -24
-757 -24 -1000 0 -855 85 -1632 344 -2351 784 -768 469 -1441 1161 -1889 1942
-903 1573 -958 3492 -149 5120 370 744 891 1380 1554 1896 527 410 1192 744
1850 930 571 161 1213 231 1795 195z"/></g></svg>
