 <svg version="1.0" xmlns="http://www.w3.org/2000/svg" width="700.000000pt" height="786.000000pt" viewBox="0 0 700.000000 786.000000" preserveAspectRatio="xMidYMid meet">
<metadata>
Created by potrace 1.12, written by Peter Selinger 2001-2015
</metadata>
<g transform="translate(0.000000,786.000000) scale(0.100000,-0.100000)" fill="#000000" stroke="none">
<path d="M2775 6329 c-82 -10 -177 -25 -210 -33 -111 -28 -224 -65 -263 -85
-9 -5 -52 -27 -95 -48 -116 -56 -126 -62 -197 -112 -141 -99 -251 -199 -351
-321 -118 -142 -236 -353 -291 -520 -52 -156 -65 -218 -83 -395 -16 -156 -7
-349 21 -485 21 -99 80 -288 110 -350 13 -28 24 -52 24 -56 0 -3 22 -43 50
-90 27 -47 50 -87 50 -90 0 -3 28 -42 62 -87 178 -235 393 -412 643 -527 39
-18 82 -39 97 -46 14 -8 33 -14 42 -14 8 0 30 -6 48 -14 36 -16 110 -35 233
-62 112 -25 490 -25 583 -1 35 10 73 17 84 17 11 0 43 7 72 16 121 40 172 58
180 66 6 4 15 8 22 8 16 0 162 68 194 90 43 30 104 62 134 71 70 20 70 20 630
-540 291 -291 533 -536 538 -545 4 -8 30 -30 57 -50 60 -44 95 -46 147 -7 59
43 202 194 214 226 27 72 38 59 -563 662 -308 309 -568 575 -578 590 -28 42
-24 95 12 161 17 31 37 64 43 72 20 26 73 143 121 270 44 115 74 261 87 423
23 284 -28 591 -138 822 -13 29 -24 55 -24 58 0 12 -120 209 -153 251 -193
247 -367 394 -607 510 -41 21 -88 43 -103 51 -16 8 -33 15 -39 15 -5 0 -24 6
-41 13 -85 37 -245 72 -382 86 -176 18 -227 18 -380 0z m410 -485 c79 -15 161
-37 200 -54 11 -5 45 -19 75 -31 187 -77 416 -279 537 -474 23 -38 93 -183 93
-194 0 -6 4 -19 9 -29 53 -99 87 -413 61 -567 -37 -222 -114 -411 -233 -570
-90 -120 -274 -272 -417 -345 -25 -12 -53 -26 -62 -31 -157 -79 -458 -118
-663 -85 -274 44 -485 149 -674 337 -216 215 -334 484 -357 815 -9 124 25 331
72 442 8 18 14 37 14 43 0 6 16 43 36 82 120 240 308 432 536 549 237 122 509
161 773 112z"></path>
</g>
</svg>