 <svg version="1.0" xmlns="http://www.w3.org/2000/svg" width="700.000000pt" height="533.000000pt" viewBox="0 0 700.000000 533.000000" preserveAspectRatio="xMidYMid meet">
<metadata>
Created by potrace 1.12, written by Peter Selinger 2001-2015
</metadata>
<g transform="translate(0.000000,533.000000) scale(0.100000,-0.100000)" fill="#000000" stroke="none">
<path d="M303 5311 c-7 -11 -26 -22 -44 -26 -80 -18 -196 -134 -214 -213 -4
-18 -15 -38 -26 -45 -19 -12 -19 -60 -19 -2362 0 -2302 0 -2350 19 -2362 11
-7 22 -27 26 -45 18 -79 134 -195 214 -213 18 -4 37 -15 44 -26 12 -19 72 -19
3180 -19 3072 0 3169 1 3185 19 10 10 35 23 58 29 62 18 156 109 196 190 l33
67 0 2360 0 2360 -33 67 c-40 81 -134 172 -196 190 -23 6 -48 19 -58 29 -16
18 -113 19 -3185 19 -3108 0 -3168 0 -3180 -19z m5105 -800 c8 -4 12 -17 10
-28 -1 -11 -84 -91 -183 -178 -99 -88 -182 -162 -185 -165 -3 -4 -117 -107
-255 -230 -137 -123 -272 -245 -300 -271 -27 -25 -72 -66 -100 -89 -43 -37
-182 -163 -266 -240 -15 -14 -57 -52 -95 -85 -104 -92 -278 -248 -284 -254
-13 -15 -198 -180 -224 -199 -16 -12 -34 -22 -40 -22 -11 0 -59 41 -156 134
-30 29 -125 115 -210 192 -85 76 -162 146 -171 154 -8 8 -51 49 -95 90 -43 41
-148 138 -233 214 -84 76 -161 146 -170 155 -40 38 -153 142 -241 221 -124
112 -211 192 -355 326 -66 61 -151 139 -190 174 -79 70 -82 75 -65 95 11 13
254 15 1904 15 1040 0 1897 -4 1904 -9z m-4489 -503 c162 -151 318 -296 421
-388 63 -57 167 -151 230 -210 137 -128 149 -139 265 -244 152 -138 196 -179
269 -247 l69 -67 -24 -29 c-13 -16 -91 -84 -174 -152 -182 -149 -252 -207
-285 -234 -14 -12 -88 -73 -165 -136 -77 -62 -142 -117 -145 -121 -3 -3 -104
-87 -225 -185 -121 -98 -236 -194 -255 -212 -37 -35 -74 -43 -84 -17 -8 20 -8
2258 0 2278 11 29 47 17 103 -36z m5245 0 c8 -30 8 -2232 0 -2252 -11 -28 -52
-18 -97 22 -23 21 -94 81 -157 133 -63 52 -126 104 -140 116 -14 12 -45 38
-70 58 -25 20 -54 44 -65 53 -11 10 -81 67 -155 127 -74 59 -139 113 -145 120
-5 6 -109 92 -230 190 -121 98 -228 185 -237 194 -9 9 -24 22 -33 29 -23 20
-18 55 13 82 101 91 239 214 300 268 82 73 104 94 188 171 33 31 94 85 134
121 121 106 185 163 190 170 3 3 91 82 195 176 299 267 297 266 309 222z
m-3253 -1829 c68 -62 178 -162 244 -223 66 -61 144 -133 174 -161 31 -27 74
-67 96 -87 22 -21 49 -38 60 -38 18 0 50 26 155 124 19 18 123 111 230 207
107 96 209 187 225 203 17 16 44 39 62 53 31 24 32 24 60 7 30 -20 232 -181
248 -200 6 -6 73 -62 150 -124 77 -63 156 -129 175 -147 19 -18 38 -33 43 -33
4 0 16 -9 27 -20 11 -11 93 -80 182 -152 90 -73 168 -138 173 -144 6 -6 109
-92 230 -190 121 -98 222 -181 225 -185 3 -3 59 -50 125 -104 66 -53 124 -104
129 -113 25 -44 110 -42 -2453 -40 l-2426 3 0 26 c0 21 25 46 140 139 77 62
145 118 150 124 6 7 42 36 80 66 39 30 75 59 80 65 6 7 73 63 150 125 77 63
142 117 145 120 3 4 95 80 205 169 110 90 216 177 235 195 19 18 131 110 247
204 117 95 230 188 250 207 21 19 43 35 49 35 6 0 67 -50 135 -111z"></path>
</g>
</svg>