 <svg version="1.0" xmlns="http://www.w3.org/2000/svg" width="700.000000pt" height="624.000000pt" viewBox="0 0 700.000000 624.000000" preserveAspectRatio="xMidYMid meet">
<metadata>
Created by potrace 1.12, written by Peter Selinger 2001-2015
</metadata>
<g transform="translate(0.000000,624.000000) scale(0.100000,-0.100000)" fill="#000000" stroke="none">
<path d="M4310 4994 c-202 -30 -249 -44 -369 -109 -29 -17 -65 -36 -79 -44
-33 -18 -176 -163 -223 -227 -41 -55 -117 -203 -144 -279 -26 -77 -37 -196
-30 -343 5 -97 3 -137 -5 -147 -17 -21 -85 -19 -221 5 -63 11 -133 20 -155 20
-23 0 -70 9 -105 19 -35 10 -82 22 -104 26 -21 4 -51 13 -65 20 -14 7 -45 16
-70 20 -25 4 -61 16 -80 26 -19 11 -43 19 -53 19 -11 0 -31 7 -45 15 -15 8
-61 28 -102 46 -41 17 -82 38 -91 45 -8 8 -19 14 -23 14 -8 0 -126 67 -188
106 -105 66 -130 85 -223 158 -55 43 -176 155 -268 248 -93 94 -169 168 -171
167 -10 -13 -49 -107 -72 -174 -27 -77 -28 -87 -28 -275 1 -160 4 -203 18
-240 10 -25 22 -62 27 -83 5 -21 16 -48 23 -60 8 -12 17 -33 21 -46 18 -60
126 -190 239 -288 53 -45 60 -79 16 -77 -78 4 -197 27 -228 44 -20 11 -43 20
-50 20 -7 0 -27 7 -44 16 -17 9 -34 12 -39 7 -12 -12 26 -239 44 -267 8 -12
18 -36 21 -54 4 -17 12 -34 17 -38 5 -3 16 -20 25 -37 68 -141 181 -267 324
-361 77 -50 161 -91 209 -100 61 -11 95 -63 54 -82 -10 -4 -90 -10 -178 -13
l-160 -6 3 -34 c3 -38 60 -143 112 -204 50 -60 183 -184 225 -212 92 -60 196
-109 250 -119 22 -4 60 -13 85 -21 25 -7 71 -16 103 -20 37 -4 60 -12 64 -21
13 -34 -123 -131 -322 -228 -74 -36 -140 -66 -147 -66 -7 0 -26 -9 -43 -20
-16 -11 -39 -20 -50 -20 -11 -1 -38 -8 -60 -16 -22 -8 -71 -21 -110 -29 -38
-7 -83 -18 -100 -25 -18 -7 -123 -14 -262 -17 -128 -3 -230 -9 -228 -13 2 -4
33 -21 67 -39 35 -17 70 -36 78 -41 8 -5 42 -21 75 -36 33 -15 76 -35 96 -46
20 -10 45 -18 55 -18 11 0 33 -9 49 -20 17 -11 38 -20 48 -20 10 0 37 -8 60
-19 23 -10 58 -22 77 -26 19 -4 44 -13 55 -20 11 -7 49 -16 85 -20 36 -4 81
-14 100 -21 19 -8 95 -19 170 -25 74 -5 159 -14 189 -20 73 -12 275 -12 342 2
30 5 133 14 229 18 104 5 185 13 198 20 13 7 53 19 90 26 103 22 192 46 244
66 26 11 54 19 63 19 10 0 34 8 54 18 20 10 56 28 81 39 87 40 255 125 269
136 14 12 31 23 82 51 19 10 54 35 79 55 25 21 72 57 105 81 104 75 341 321
439 455 9 11 26 34 39 50 39 48 152 214 204 300 28 44 106 199 143 280 10 22
28 61 39 86 12 25 21 53 21 62 0 9 9 36 19 59 10 24 23 61 29 83 5 22 15 54
20 70 20 55 43 159 57 258 8 54 19 115 25 135 7 21 14 132 17 248 l6 211 86
71 c104 86 191 169 251 241 25 29 53 62 63 74 9 11 16 25 14 31 -5 14 -56 9
-83 -9 -12 -7 -50 -19 -85 -25 -35 -7 -70 -16 -77 -22 -7 -6 -55 -13 -108 -16
-95 -5 -96 -5 -92 18 1 13 12 28 23 34 30 17 115 87 153 126 35 37 142 191
142 206 1 5 9 27 20 49 10 22 17 42 14 44 -4 5 -10 2 -133 -58 -46 -23 -88
-41 -94 -41 -5 0 -28 -9 -51 -19 -91 -43 -195 -70 -269 -71 -43 0 -53 4 -90
40 -75 72 -175 135 -312 196 -33 14 -213 50 -285 56 -25 3 -83 -1 -130 -8z"></path>
</g>
</svg>