 <svg version="1.0" xmlns="http://www.w3.org/2000/svg" width="700.000000pt" height="669.000000pt" viewBox="0 0 700.000000 669.000000" preserveAspectRatio="xMidYMid meet">
<metadata>
Created by potrace 1.12, written by Peter Selinger 2001-2015
</metadata>
<g transform="translate(0.000000,669.000000) scale(0.100000,-0.100000)" fill="#000000" stroke="none">
<path d="M3285 5820 c-22 -4 -63 -17 -91 -28 -28 -11 -79 -26 -113 -33 -34 -6
-79 -23 -99 -37 -20 -14 -59 -34 -87 -44 -27 -11 -61 -30 -75 -42 -14 -12 -42
-35 -63 -52 -21 -16 -53 -40 -71 -54 -38 -30 -196 -207 -196 -220 0 -5 -14
-25 -31 -45 -17 -19 -37 -56 -45 -82 -8 -26 -25 -64 -39 -83 -16 -23 -34 -77
-50 -148 -13 -62 -29 -121 -35 -131 -34 -64 -28 -363 9 -458 10 -26 26 -84 35
-127 9 -46 26 -92 39 -110 13 -17 34 -57 46 -89 13 -31 28 -60 33 -63 5 -3 21
-24 35 -47 66 -106 257 -286 362 -342 20 -11 50 -29 67 -41 16 -12 63 -32 104
-47 41 -14 100 -34 130 -45 153 -56 574 -45 700 18 19 9 60 25 90 35 30 10 66
26 80 35 14 10 48 29 75 44 28 14 77 49 110 76 33 28 77 62 97 76 21 14 46 40
57 58 11 17 43 58 71 91 27 33 63 85 78 115 16 30 38 71 50 90 12 19 22 42 22
50 0 8 13 42 28 75 54 114 78 318 62 527 -12 159 -20 198 -55 278 -13 30 -29
74 -35 97 -6 23 -22 55 -35 72 -14 16 -31 42 -38 58 -19 45 -120 174 -189 243
-61 62 -157 132 -240 177 -23 13 -58 34 -79 47 -20 14 -64 32 -96 40 -33 9
-91 28 -129 42 -65 26 -81 27 -259 30 -104 2 -208 -1 -230 -6z"></path>
<path d="M2241 3442 c-137 -144 -262 -294 -291 -352 -10 -20 -26 -42 -35 -50
-9 -8 -26 -32 -37 -54 -12 -23 -36 -61 -54 -85 -19 -24 -34 -49 -34 -55 0 -6
-13 -27 -28 -46 -16 -19 -37 -57 -47 -85 -11 -27 -29 -66 -42 -85 -12 -19 -29
-55 -38 -80 -9 -25 -27 -61 -40 -80 -13 -19 -31 -64 -40 -100 -9 -36 -25 -79
-36 -96 -10 -17 -25 -63 -34 -102 -8 -40 -27 -95 -41 -124 -22 -44 -25 -62
-22 -117 3 -60 8 -73 49 -131 34 -49 54 -69 84 -80 34 -13 153 -15 776 -18
826 -3 759 -9 780 72 18 72 128 178 260 250 25 13 51 32 59 41 8 9 35 27 60
40 25 13 52 31 60 40 8 9 35 27 60 40 25 13 52 31 60 40 7 9 32 26 54 37 23
11 56 34 74 49 18 16 38 29 46 29 7 0 28 14 47 31 19 17 48 37 64 44 17 7 47
27 69 44 21 17 42 31 47 31 5 0 23 13 41 29 18 16 73 48 123 71 79 37 95 42
145 38 62 -5 167 -61 199 -107 43 -60 73 -133 82 -198 13 -96 22 -116 71 -168
39 -41 53 -48 127 -65 109 -26 506 -29 589 -5 66 20 76 38 70 130 -4 56 -12
84 -35 126 -17 30 -36 77 -42 104 -7 28 -25 70 -41 95 -15 25 -33 62 -40 83
-6 21 -23 50 -36 66 -13 16 -31 47 -38 69 -8 22 -28 59 -45 82 -17 24 -31 49
-31 56 0 8 -15 31 -34 51 -18 21 -41 54 -51 73 -10 19 -31 50 -46 68 -16 18
-29 37 -29 42 0 11 -65 90 -175 214 -11 12 -40 46 -64 74 -51 62 -86 82 -138
82 -41 -1 -61 -10 -107 -50 -186 -162 -275 -226 -401 -289 -55 -27 -120 -55
-145 -61 -25 -7 -70 -23 -102 -36 -82 -34 -249 -48 -493 -41 -129 4 -218 12
-250 21 -120 35 -215 70 -290 107 -44 22 -85 39 -90 39 -6 0 -26 13 -45 28
-19 16 -46 35 -60 42 -28 14 -55 36 -182 145 -93 81 -120 95 -175 95 -31 0
-44 -8 -92 -58z"></path>
<path d="M4238 2255 c-21 -8 -54 -27 -74 -42 -21 -15 -56 -39 -79 -53 -89 -53
-109 -66 -151 -97 -23 -17 -57 -39 -76 -49 -18 -9 -48 -30 -66 -45 -18 -16
-38 -29 -45 -29 -7 0 -36 -18 -66 -40 -29 -22 -58 -40 -65 -40 -6 0 -26 -13
-44 -30 -18 -16 -51 -38 -75 -49 -23 -11 -64 -40 -92 -65 -47 -42 -50 -48 -49
-92 1 -43 5 -51 54 -95 28 -27 58 -49 66 -49 7 0 29 -13 47 -30 19 -16 54 -38
78 -48 24 -11 53 -29 64 -42 11 -12 33 -28 50 -36 16 -7 51 -28 76 -46 26 -18
61 -42 79 -53 33 -19 75 -46 176 -112 27 -17 63 -42 79 -55 17 -13 65 -41 108
-61 l77 -38 44 20 c59 26 72 51 80 146 5 71 10 86 43 135 31 45 51 62 112 93
l74 37 444 0 c298 0 459 4 489 11 72 19 79 36 79 214 0 171 -9 205 -60 229
-28 14 -94 16 -478 16 -258 0 -467 4 -498 10 -38 7 -66 21 -99 49 -69 59 -99
114 -106 196 -8 103 -12 114 -47 135 -37 23 -95 25 -149 5z"></path>
</g>
</svg>