 <svg version="1.0" xmlns="http://www.w3.org/2000/svg" width="700.000000pt" height="608.000000pt" viewBox="0 0 700.000000 608.000000" preserveAspectRatio="xMidYMid meet">
<metadata>
Created by potrace 1.12, written by Peter Selinger 2001-2015
</metadata>
<g transform="translate(0.000000,608.000000) scale(0.100000,-0.100000)" fill="#000000" stroke="none">
<path d="M3395 5201 c-33 -4 -82 -15 -108 -24 -26 -10 -54 -17 -62 -17 -20 0
-151 -59 -269 -122 -101 -53 -298 -251 -372 -375 -50 -84 -124 -247 -124 -273
0 -11 -10 -48 -22 -82 -20 -57 -22 -81 -21 -268 0 -183 3 -211 22 -264 11 -33
21 -69 21 -80 0 -12 8 -37 18 -56 11 -19 22 -47 25 -61 7 -27 42 -91 107 -194
41 -65 162 -195 245 -263 74 -60 225 -146 295 -167 14 -4 34 -14 45 -21 11 -8
29 -14 40 -14 12 0 55 -9 96 -20 108 -29 363 -28 486 1 203 48 380 137 519
261 86 77 204 214 204 236 0 5 6 15 14 21 18 15 97 177 120 246 10 28 22 73
27 100 5 28 16 83 24 123 20 100 19 198 -5 338 -34 195 -83 320 -189 479 -66
100 -220 251 -321 316 -89 57 -262 139 -293 139 -10 0 -43 9 -75 20 -46 16
-90 21 -222 25 -91 2 -192 0 -225 -4z"></path>
<path d="M2385 2866 c-40 -18 -245 -249 -334 -376 -64 -93 -131 -192 -131
-196 0 -2 -17 -30 -37 -61 -21 -32 -52 -87 -71 -123 -18 -36 -37 -72 -42 -80
-4 -8 -20 -42 -35 -75 -15 -33 -35 -77 -46 -97 -10 -20 -19 -42 -19 -49 0 -6
-8 -30 -19 -53 -29 -63 -59 -147 -66 -186 -4 -19 -13 -47 -21 -61 -20 -39 -34
-148 -25 -200 10 -60 57 -118 124 -152 l54 -27 1854 0 1854 0 50 24 c55 26 94
63 118 115 28 56 29 92 8 166 -46 155 -64 212 -82 253 -11 23 -19 48 -19 54 0
6 -9 32 -21 57 -11 25 -29 64 -39 86 -36 80 -121 251 -145 290 -14 22 -34 56
-45 75 -136 235 -424 593 -500 622 -53 20 -101 1 -173 -67 -37 -36 -100 -89
-140 -118 -71 -52 -228 -147 -244 -147 -4 0 -21 -7 -38 -16 -43 -23 -131 -54
-196 -69 -31 -7 -74 -19 -95 -26 -61 -22 -535 -20 -589 2 -22 9 -60 20 -85 24
-83 13 -301 108 -388 168 -28 20 -55 37 -58 37 -7 0 -110 84 -129 104 -5 6
-35 32 -66 58 -62 53 -114 67 -164 44z"></path>
</g>
</svg>